<svg id="Layer_1" data-name="Layer 1" xmlns="http://www.w3.org/2000/svg" viewBox="0 0 22 22"><defs><style>.cls-1{fill:#eeeff0;}</style></defs><circle class="cls-1" cx="11" cy="11" r="11"/><path d="M15.23,15.16l.32.47a.64.64,0,0,1,.49.62.63.63,0,0,1-1.26,0,.64.64,0,0,1,0-.2l-.34-.52a2.6,2.6,0,0,1-.64.09H8.17a2.6,2.6,0,0,1-.64-.09l-.34.52a.64.64,0,0,1,0,.2.63.63,0,1,1-1.26,0,.64.64,0,0,1,.49-.62l.32-.47a3.57,3.57,0,0,1-1.65-2.9H16.88A3.57,3.57,0,0,1,15.23,15.16Zm1.65-4.58H16V6.38a1.27,1.27,0,0,0-1.26-1.26H13.31a1.26,1.26,0,0,0-1.26,1.26v.15a1.24,1.24,0,0,0-.63,1,.1.1,0,0,0,.11.11h1.88a.1.1,0,0,0,.11-.11,1.24,1.24,0,0,0-.63-1V6.38A.42.42,0,0,1,13.31,6h1.47a.42.42,0,0,1,.42.42v4.19H5.12A.42.42,0,0,0,4.7,11v.42a.42.42,0,0,0,.42.42H16.88a.42.42,0,0,0,.42-.42V11A.42.42,0,0,0,16.88,10.58ZM13.31,8.06a.21.21,0,1,0,.21.21A.21.21,0,0,0,13.31,8.06Zm-.84.42a.21.21,0,1,0-.21-.21A.21.21,0,0,0,12.47,8.48Zm0,.84a.21.21,0,1,0-.21-.21A.21.21,0,0,0,12.47,9.32Zm0,.84a.21.21,0,1,0-.21-.21A.21.21,0,0,0,12.47,10.16ZM13.73,8.9a.21.21,0,1,0,0,.42.21.21,0,0,0,0-.42Zm.42,1.26a.21.21,0,0,0,0-.42.21.21,0,0,0,0,.42Zm-3.36,0a.21.21,0,1,0-.21-.21A.21.21,0,0,0,10.79,10.16Zm1.05-1.89a.21.21,0,1,0-.21.21A.21.21,0,0,0,11.84,8.27Zm-.63,1.05A.21.21,0,1,0,11,9.11.21.21,0,0,0,11.21,9.32Z"/></svg>