<?xml version="1.0" encoding="utf-8"?>
<!-- Generator: Adobe Illustrator 24.0.1, SVG Export Plug-In . SVG Version: 6.00 Build 0)  -->
<svg version="1.1" id="Layer_1" xmlns="http://www.w3.org/2000/svg" xmlns:xlink="http://www.w3.org/1999/xlink" x="0px" y="0px"
	 viewBox="0 0 42 42" style="enable-background:new 0 0 42 42;" xml:space="preserve">
<style type="text/css">
	.st0{fill:#EEEFF0;}
	.st1{fill:#FFFFFF;}
</style>
<circle class="st0" cx="21" cy="21" r="21"/>
<g>
	<path d="M14.3,29.8c2-2.2,4-4.4,6-6.6c0.4,0.8,0.9,1.5,1.9,1.8c-2.3,2.1-4.5,4.1-6.7,6.1C15.1,30.7,14.8,30.3,14.3,29.8z
		 M20.4,25.3c-0.1-0.1-0.3-0.3-0.3-0.3c-0.5,0.4-0.9,0.8-1.3,1.2c0.2,0.2,0.3,0.3,0.4,0.5C19.6,26.2,20,25.8,20.4,25.3z"/>
	<path d="M11.8,23.5c0-1.1,0-2.1,0-3.1c0-0.4,0.1-0.5,0.5-0.6c1.3-0.3,2.5-0.7,3.8-1c0,0,0.1,0.1,0.1,0.1c0,1.5,0,3,0,4.5
		c0,0.7-0.6,1.3-1.3,1.4c-0.7,0.1-1.2-0.3-1.1-1c0-0.8,0.6-1.4,1.4-1.5c0.1,0,0.3,0,0.5,0c0-0.5,0-1,0-1.6c-1,0.3-1.9,0.5-2.9,0.8
		c-0.1,0-0.3,0.3-0.3,0.5c0,0.8,0,1.7-0.1,2.5c0,0.8-0.6,1.4-1.3,1.6c-0.9,0.2-1.4-0.4-1.2-1.3c0.2-0.7,0.7-1.1,1.4-1.2
		C11.5,23.5,11.6,23.5,11.8,23.5z M12.4,20.7c0,0.1,0.1,0.1,0.1,0.2c1-0.3,1.9-0.5,2.9-0.8c0.1,0,0.1-0.3,0.3-0.6
		c-1.1,0.3-2.1,0.6-3,0.8C12.6,20.4,12.5,20.6,12.4,20.7z"/>
	<path d="M27.9,9.9c-0.7,0.2-1.3,0-2-0.3c-0.5-0.2-1.1-0.4-1.7-0.6c-0.4-0.1-0.5,0-0.7,0.4c-0.5,1.6-1.1,3.1-1.6,4.7
		c-0.3,1-1.3,1.6-2.3,1.5c-0.5,0-1-0.2-1.3-0.8c-0.3-0.5-0.1-1.1,0.2-1.5c0.6-0.9,1.8-1.2,2.8-0.8c0.1,0,0.1,0.1,0.2,0.1
		c0.3-0.9,0.6-1.8,0.9-2.7c0.2-0.5,0.3-1,0.5-1.5c0.2-0.7,0.6-0.9,1.3-0.7c0.5,0.2,1,0.6,1.5,0.9c0.3,0.2,0.6,0.6,1,0.8
		C27.1,9.6,27.5,9.7,27.9,9.9z"/>
	<path d="M32,18c0-1.1,0-2.1,0-3.2c0-0.4,0.1-0.6,0.5-0.7c1.3-0.3,2.5-0.6,3.8-1c0.1,0,0.1,0,0.2,0c0,0.1,0.1,0.2,0.1,0.4
		c0,1.4,0,2.8,0,4.2c0,0.9-0.5,1.5-1.3,1.7c-0.8,0.2-1.4-0.4-1.2-1.3c0.2-0.8,0.8-1.2,1.9-1.3c0-0.9,0-1.8,0-2.9
		c-1,0.3-2.1,0.5-3,0.8c-0.1,0-0.2,0.3-0.2,0.5c0,1.2,0,2.5,0,3.7c0,0.8-0.5,1.5-1.2,1.6c-0.3,0.1-0.9,0-1.1-0.2
		c-0.2-0.2-0.3-0.7-0.2-1.1C30.3,18.4,30.9,18.1,32,18z"/>
	<path d="M24.6,24.2c-1.2-0.9-2.2-1.9-3.1-3c-0.3-0.4-0.2-0.7,0.2-0.9c0.9-0.7,2.5-0.5,3.3,0.4C25.9,21.8,25.8,23.3,24.6,24.2z"/>
	<path d="M23.1,32.1c0-0.9,0-1.9,0-2.8c0-0.5,0.3-0.7,0.7-0.7c0.4,0,0.8,0.2,1.1,0.3c0.4,0.1,0.9,0.2,1.4,0.4
		c-0.4,0-0.8,0.1-1.1,0.1c-1.6-0.1-1.6-0.1-1.6,1.4c0,0.7,0,1.4,0,2.2c0,0.7-0.4,1.3-1.1,1.4c-0.3,0.1-0.7,0-0.9-0.2
		c-0.2-0.2-0.3-0.6-0.2-0.9C21.5,32.6,22.1,32.2,23.1,32.1z"/>
	<path d="M14,30.2c0.4,0.4,0.8,0.8,1.2,1.2c-0.4,0.4-0.9,0.8-1.3,1.2c-0.1-0.1-0.3-0.1-0.3-0.2c-0.5,0.3-0.9,0.6-1.3,0.9
		c-0.6,0.4-1.2,0.4-1.7-0.1c-0.3-0.3-0.6-0.7-0.9-1.2c-0.8-1.6-2-2.4-3.8-2.3c-0.1,0-0.2-0.1-0.3-0.2c0.1-0.1,0.2-0.2,0.3-0.2
		c1.6-0.1,2.9,0.5,3.8,1.9c0.2,0.4,0.4,0.8,0.7,1.1c0.2,0.3,0.5,0.6,0.9,0.8c0.4,0.2,0.7,0,1-0.3c0.3-0.3,0.5-0.6,0.6-1
		c0.1-0.2,0.1-0.5,0.3-0.7C13.3,30.9,13.6,30.6,14,30.2z"/>
	<path d="M23.8,24.6c-0.9,0.3-1.9,0-2.6-0.7c-0.6-0.7-0.8-1.7-0.4-2.4C21.8,22.5,22.8,23.5,23.8,24.6z"/>
</g>
</svg>
