<?xml version="1.0" encoding="utf-8"?>
<!-- Generator: Adobe Illustrator 24.0.1, SVG Export Plug-In . SVG Version: 6.00 Build 0)  -->
<svg version="1.1" id="Layer_1" xmlns="http://www.w3.org/2000/svg" xmlns:xlink="http://www.w3.org/1999/xlink" x="0px" y="0px"
	 viewBox="0 0 42 42" style="enable-background:new 0 0 42 42;" xml:space="preserve">
<style type="text/css">
	.st0{fill:#EEEFF0;}
	.st1{fill:#FFFFFF;}
</style>
<circle class="st0" cx="21" cy="21" r="21"/>
<g>
	<path d="M29.7,8.4C29.7,8.4,29.8,8.4,29.7,8.4c0.8,0.4,1.1,1,1.4,1.7c0.8,2.2,1.6,4.4,2.4,6.6c0.4,1.2,0,2.1-1.2,2.6
		c-0.9,0.3-1.9,0.7-2.8,1c0,0,0,0,0,0c-0.1,1.2-0.4,1.5-1.5,1.6c-0.3,1.1-0.9,1.4-2,1.1c0,0.5-0.1,1-0.6,1.3c-0.4,0.2-0.7,0.2-1.1,0
		c0.1-0.1,0.1-0.2,0.2-0.3c0.7-1.1,1.4-2.2,2.1-3.3c0.1-0.1,0.3-0.3,0.4-0.3c1.7-0.6,3.4-1.2,5.1-1.9c0.8-0.3,1-0.8,0.7-1.6
		c-0.5-1.3-1-2.7-1.5-4c0-0.1-0.1-0.3-0.2-0.4c-4.5,1.7-9.1,3.3-13.6,5c0.1,0.4,0.3,0.7,0.4,1.1c0.4,1.1,0.8,2.2,1.2,3.4
		c0.1,0.2,0.2,0.4,0.3,0.5c0.4,0.3,0.6,0.3,0.8-0.1c0.7-1,1.3-2.1,2-3.1c0.6-0.9,1.6-1.2,2.5-0.7c0.9,0.5,1,1.6,0.4,2.5
		c-1.5,2.3-2.9,4.6-4.4,6.8c-0.8,1.2-1.9,2-3.3,2.4c-0.5,0.1-1.1,0.2-1.7,0.4c-0.2,0-0.4,0.1-0.6,0.2c-0.4,0.2-0.8,0.4-1.2,0.7
		c-1-1.9-2-3.7-3-5.6c0.6-0.3,1.1-0.6,1.6-0.9c0.1-0.1,0.3-0.3,0.3-0.4c0.4-2.3,0.8-4.6,1.2-6.8c0-0.2,0.1-0.3,0.3-0.4
		c0.6-0.2,1.2-0.4,1.8-0.7c-0.2-0.5-0.3-0.9-0.5-1.4c-0.5-1.3,0-2.2,1.3-2.7c3.7-1.4,7.5-2.7,11.2-4.1c0.1,0,0.2-0.1,0.3-0.2
		C29,8.4,29.4,8.4,29.7,8.4z M30.3,10.4c-0.2-1-0.8-1.4-1.8-1c-3.7,1.4-7.4,2.7-11.1,4.1c-0.9,0.3-1.1,1.1-0.6,1.9
		C21.3,13.7,25.8,12,30.3,10.4z"/>
	<path d="M12.1,33.6c-1.3-2.4-2.5-4.7-3.8-7.1c0.5-0.3,0.9-0.5,1.4-0.8c1.3,2.4,2.5,4.7,3.8,7.1C13,33.1,12.6,33.3,12.1,33.6z"/>
</g>
</svg>
