<?xml version="1.0" encoding="utf-8"?>
<!-- Generator: Adobe Illustrator 24.0.1, SVG Export Plug-In . SVG Version: 6.00 Build 0)  -->
<svg version="1.1" id="Layer_1" xmlns="http://www.w3.org/2000/svg" xmlns:xlink="http://www.w3.org/1999/xlink" x="0px" y="0px"
	 viewBox="0 0 42 42" style="enable-background:new 0 0 42 42;" xml:space="preserve">
<style type="text/css">
	.st0{fill:#EEEFF0;}
	.st1{fill:#FFFFFF;}
</style>
<circle class="st0" cx="21" cy="21" r="21"/>
<g>
	<path d="M17.1,18.6c0,3.4,0,6.7,0,10.1c0,0.2-0.2,0.5-0.4,0.5c-2.8,0.4-5.6,0.4-8.5,0c0-1.8,0-3.5,0-5.3c0-1.2,0-2.4,0-3.6
		c0-0.8,0.8-1.5,1.6-1.3C13.4,19.5,13.4,19.5,17.1,18.6z M9.8,24.3c0-1,0-2.1,0-3.1c0-0.2-0.2-0.4-0.3-0.6c-0.1,0.2-0.3,0.4-0.4,0.6
		c0,2.1,0,4.2,0,6.3c0,0.2,0.2,0.4,0.4,0.6c0.1-0.2,0.3-0.4,0.3-0.7C9.8,26.3,9.8,25.3,9.8,24.3z"/>
	<path d="M30.3,27.8c0-0.6,0-1.2,0-1.8c-0.7-0.1-1.4-0.2-2.1-0.4c-2.9-0.8-4.2-3-3.7-6.2c0.3-1.9,1.1-3.6,2.3-5.1
		c0.2-0.3,0.7-0.5,1.1-0.5c2-0.1,3.9,0,5.9,0c0.3,0,0.7,0.1,0.9,0.3c1.7,2.2,2.9,4.7,2.5,7.6c-0.3,2.4-2,3.8-4.8,4.2
		c-0.3,0-0.9,0.1-1,0.2c-0.1,0.5-0.1,1-0.1,1.6c0,0.1,0.3,0.3,0.5,0.4c0.9,0.3,1.8,0.6,2.7,1c0.3,0.1,0.4,0.4,0.6,0.6
		c-0.2,0.2-0.4,0.4-0.7,0.5c-2.5,0.6-5,0.6-7.5,0c-0.3-0.1-0.4-0.4-0.7-0.6c0.2-0.2,0.4-0.5,0.6-0.6C28.1,28.5,29.2,28.2,30.3,27.8z
		 M30.8,14.7c-0.9,0-1.8,0-2.7,0c-0.3,0-0.6,0.2-0.7,0.4c-1.2,1.7-2,3.5-2,5.6c-0.1,2,1,3.4,2.9,4c1.7,0.4,3.3,0.5,5,0
		c2-0.5,3.1-1.9,3-4c0-2.1-0.8-3.9-2-5.6c-0.1-0.2-0.5-0.4-0.7-0.4C32.6,14.7,31.7,14.7,30.8,14.7z M32.4,29.4
		c-1.4-0.9-2.3-0.9-3.2,0C30.3,29.4,31.3,29.4,32.4,29.4z"/>
	<path d="M6.6,19.3c0.4,0,0.6,0.1,0.9,0.1c0,0.4,0,0.7,0,1c0,2.9,0,5.7,0,8.6c0,0.5,0.2,0.7,0.7,0.8c3,0.4,6,0.4,9,0
		c0.6-0.1,0.7-0.4,0.7-0.9c0-3.1,0-6.2,0-9.3c0-0.3,0-0.7,0-1c0.3,0,0.6,0,0.8-0.1c0.1,0.3,0.1,0.5,0.2,0.8c0.3,0.1,0.7,0.1,1,0.2
		c1.1,0.3,1.6,0.9,1.6,2.1c0,0.7,0,1.3,0,2c0,1.4-0.5,2-1.9,2.3c-0.2,0-0.5,0.1-0.8,0.1c0,1.2,0,2.4,0,3.6c0,0.6-0.1,0.9-0.7,1
		c-3.6,0.6-7.1,0.6-10.7,0C7,30.5,6.6,30.2,6.6,30C6.6,26.4,6.6,22.9,6.6,19.3z M18.8,25c1.3,0,1.7-0.3,1.7-1.5c0-0.6,0-1.1,0-1.7
		c0-1.1-0.5-1.5-1.7-1.4C18.8,22,18.8,23.5,18.8,25z"/>
	<path d="M11.7,10.9c0.5,0.2,1.3,0.6,2.1,1c0.3,0.1,0.6,0.2,0.8,0.1c1.7-0.5,3.1-0.1,4.1,1.4c0.1,0.2,0.3,0.4,0.5,0.5
		c1,0.6,1.5,1.4,1.2,2.4c-0.3,1-1.3,1.8-2.4,1.6c-0.8-0.1-1.4,0.1-2.1,0.3c-1.9,0.7-3.8,0.7-5.8,0c-0.3-0.1-0.7,0-1,0
		c-0.5,0.1-0.9,0.3-1.4,0.4c-1.6,0.2-2.7-0.6-3-2.1c-0.3-1.6,0.5-2.7,2-3.1c0.3-0.1,0.6-0.3,0.8-0.6C8.6,11.6,9.8,11,11.7,10.9z
		 M13.1,17.8c0.4-0.1,1-0.1,1.5-0.2c1.3-0.3,2.4-1.1,3.8-0.7c0.5,0.1,1.1-0.3,1.1-1c0.1-0.6-0.3-1-0.8-1.2c-0.3-0.1-0.6-0.3-0.7-0.5
		c-0.8-1.4-2.1-1.8-3.5-1c-0.5,0.3-0.7,0.2-1-0.2c-1.5-1.6-4-1.4-5.2,0.5c-0.3,0.5-0.6,0.7-1.1,0.8c-1.2,0.1-1.7,0.9-1.5,2.1
		c0.2,1,1,1.7,2,1.2c1.5-0.7,2.7-0.3,4.1,0.1C12.3,17.7,12.7,17.7,13.1,17.8z"/>
	<path d="M30.9,18.8c1.3,0,2.5,0,3.8,0c0.4,0,0.7,0.1,0.7,0.6c0,0.5,0.2,1.1,0.1,1.6c0,1.4-0.7,2.4-2,2.8c-1.8,0.6-3.7,0.6-5.5,0
		c-1.8-0.6-2.7-3.2-1.7-4.8c0.1-0.2,0.4-0.2,0.6-0.2C28.3,18.8,29.6,18.8,30.9,18.8z M27.5,20.7c0.1-0.1,0.2-0.1,0.3-0.2
		c-0.1-0.2-0.2-0.5-0.3-0.7c-0.1,0.1-0.4,0.2-0.4,0.3c-0.3,0.7,0.1,2.2,0.8,2.5c0.2,0.1,0.4,0,0.6,0c0-0.2-0.1-0.4-0.1-0.5
		C28.1,21.7,27.8,21.2,27.5,20.7z"/>
</g>
</svg>
