<?xml version="1.0" encoding="utf-8"?>
<!-- Generator: Adobe Illustrator 24.0.1, SVG Export Plug-In . SVG Version: 6.00 Build 0)  -->
<svg version="1.1" id="Layer_1" xmlns="http://www.w3.org/2000/svg" xmlns:xlink="http://www.w3.org/1999/xlink" x="0px" y="0px"
	 viewBox="0 0 42 42" style="enable-background:new 0 0 42 42;" xml:space="preserve">
<style type="text/css">
	.st0{fill:#EEEFF0;}
	.st1{fill:#FFFFFF;}
</style>
<circle class="st0" cx="21" cy="21" r="21"/>
<g>
	<path d="M19.8,21.9c1.5,0,3,0,4.4,0c0-0.2,0-0.4,0-0.7c-0.9,0-1.8,0-2.7,0c0-2.8,0-5.5,0-8.2c4.1,0,8.1,0,12.1,0c0,2.7,0,5.4,0,8.1
		c-0.9,0-1.8,0-2.7,0c0,0.3,0,0.5,0,0.8c0.9,0,1.8,0,2.7,0c0,3.7,0,7.3,0,11c-0.5,0-1.1,0-1.6,0c0,0.3,0,0.5-0.1,0.7
		c-0.2,0-0.5,0-0.7,0c0-0.2,0-0.4-0.1-0.6c-6.8,0-13.6,0-20.4,0c0,0.2,0,0.4-0.1,0.6c-0.2,0-0.5,0-0.7,0c0-0.2,0-0.4-0.1-0.7
		c-0.5,0-1,0-1.6,0c0-3.7,0-7.3,0-11c0.2,0,0.5,0,0.8,0c0-0.2,0-0.4,0-0.6c0-0.9,0-1.9,0-2.8c0-1.6,0.7-2.8,2.2-3.5
		c0.3-0.1,0.5-0.1,0.8,0c1.5,1,3.2,1,4.7,0c0.3-0.2,0.5-0.2,0.7-0.1c1.4,0.7,2.1,1.8,2.1,3.3C19.8,19.5,19.8,20.6,19.8,21.9z
		 M9.1,32.1c7.9,0,15.8,0,23.7,0c0-2.1,0-4.1,0-6.1c-7.9,0-15.8,0-23.7,0C9.1,28,9.1,30,9.1,32.1z M22.3,13.8c0,2.2,0,4.3,0,6.5
		c3.6,0,7,0,10.5,0c0-2.2,0-4.4,0-6.5C29.3,13.8,25.8,13.8,22.3,13.8z M9.1,25.1c7.9,0,15.8,0,23.7,0c0-0.8,0-1.6,0-2.4
		c-7.9,0-15.8,0-23.7,0C9.1,23.5,9.1,24.3,9.1,25.1z M18.2,18.5c0,1.1,0,2.2,0,3.3c0.3,0,0.5,0,0.8,0c0-1.3,0.1-2.7,0-4
		c-0.1-0.8-0.6-1.5-1.3-2c-0.1-0.1-0.4-0.1-0.6,0c-1.7,0.9-3.4,0.9-5.1,0c-0.2-0.1-0.5-0.1-0.6,0c-0.9,0.6-1.3,1.5-1.3,2.6
		c0,0.9,0,1.8,0,2.7c0,0.8,0,0.8,0.9,0.6c0-1.1,0-2.2,0-3.3c0.3,0,0.5,0,0.8,0c0,1.1,0,2.2,0,3.3c1.9,0,3.8,0,5.7,0
		c0-1.1,0-2.2,0-3.3C17.6,18.5,17.8,18.5,18.2,18.5z M25.1,21.9c1.7,0,3.3,0,5,0c0-0.3,0-0.5,0-0.7c-1.7,0-3.3,0-5,0
		C25.1,21.4,25.1,21.6,25.1,21.9z"/>
	<path d="M14.5,14.9c-1.8,0-3.3-1.5-3.2-3.3c0-1.8,1.5-3.2,3.3-3.2c1.8,0,3.2,1.5,3.2,3.2C17.8,13.4,16.3,14.9,14.5,14.9z
		 M14.5,14.1c1.3,0,2.4-1.1,2.4-2.5c0-1.4-1.1-2.5-2.5-2.5c-1.4,0-2.4,1.1-2.4,2.5C12,13,13.1,14.1,14.5,14.1z"/>
</g>
</svg>
