<svg id="Layer_1" data-name="Layer 1" xmlns="http://www.w3.org/2000/svg" viewBox="0 0 22 22"><defs><style>.cls-1{fill:#eeeff0;}</style></defs><circle class="cls-1" cx="11" cy="11" r="11"/><path d="M11,15H7.54A2.6,2.6,0,0,1,5,11.79q.66-3.46,1.31-6.94A2.06,2.06,0,0,1,8.31,3.11h5.36A2.1,2.1,0,0,1,15.78,5q.63,3.38,1.27,6.75a2.61,2.61,0,0,1-1.94,3.17,2.9,2.9,0,0,1-.66.07Zm0-4.29h0c1.1,0,2.2,0,3.3,0a.73.73,0,0,0,.77-1l-.57-2.83c-.11-.57-.26-.69-.82-.7H8.09a.57.57,0,0,0-.55.48c0,.17-.07.34-.1.51C7.26,8,7.08,8.9,6.92,9.77a.68.68,0,0,0,.58.87,3,3,0,0,0,.52,0Zm0-5.59h2a.47.47,0,1,0,0-.94H9a.44.44,0,0,0-.43.27A.47.47,0,0,0,9,5.09Zm3.58,8.44a.91.91,0,0,0,0-1.82.91.91,0,1,0,0,1.82Zm-8-.91a.91.91,0,1,0,.92-.91A.9.9,0,0,0,6.53,12.62Z"/><path d="M13.4,16.76l-.47-1,.16,0h1.55a.29.29,0,0,1,.19.1l1.93,3s0,.05,0,.1H16c-.48,0-1,0-1.43,0a.36.36,0,0,1-.21-.13c-.14-.26-.26-.53-.38-.8a.23.23,0,0,0-.24-.16H8.27A.22.22,0,0,0,8,18c-.12.27-.25.55-.39.81a.21.21,0,0,1-.15.13H5.2a1.06,1.06,0,0,1,.11-.19l1.83-2.83a.29.29,0,0,1,.28-.14H9.08l-.47,1Z"/></svg>