<?xml version="1.0" encoding="utf-8"?>
<!-- Generator: Adobe Illustrator 24.0.1, SVG Export Plug-In . SVG Version: 6.00 Build 0)  -->
<svg version="1.1" id="Layer_1" xmlns="http://www.w3.org/2000/svg" xmlns:xlink="http://www.w3.org/1999/xlink" x="0px" y="0px"
	 viewBox="0 0 42 42" style="enable-background:new 0 0 42 42;" xml:space="preserve">
<style type="text/css">
	.st0{fill:#EEEFF0;}
	.st1{fill:#FFFFFF;}
</style>
<circle class="st0" cx="21" cy="21" r="21"/>
<g>
	<path d="M36.4,32.6c-10.3,0-20.5,0-30.8,0c0-3.9,0-7.9,0-11.8c1.8,0,3.6,0,5.4,0c0-3.1,0-6.1,0-9.1c0.4,0,0.7-0.1,1.1-0.1
		c-0.1-0.5-0.1-1-0.2-1.6c1-0.2,2-0.3,3.1-0.5c0.1,0.6,0.2,1.2,0.3,1.7c0,0.2,0.3,0.4,0.4,0.4c1.2,0,2.3,0,3.6,0c0-0.7,0-1.3,0-1.9
		c1.1,0,2.1,0,3.2,0c0,0.6,0,1.2,0,1.9c1.3,0,2.5,0,3.7,0c0.1,0,0.3-0.3,0.3-0.4c0.1-0.5,0.2-1.1,0.3-1.7c1,0.2,2,0.3,3.1,0.5
		c-0.1,0.5-0.1,1-0.2,1.6c0.4,0,0.7,0.1,1.1,0.1c0,3,0,6,0,9.1c1.8,0,3.6,0,5.4,0C36.4,24.7,36.4,28.6,36.4,32.6z M12,31.7
		c6,0,12,0,18,0c0-1.1,0-2.1,0-3.2c-6,0-12,0-18,0C12,29.6,12,30.6,12,31.7z M18.4,25.1c0.1,0,0.1,0,0.2,0c0.6-3.7,1.2-7.5,1.8-11.2
		c-0.4-0.1-0.6-0.1-0.9-0.1c0-0.4-0.1-0.9-0.1-1.3c-1.3,0-2.5,0-3.7,0c0,0.4,0.1,0.7,0.1,1.1c-0.3,0.1-0.6,0.2-0.9,0.3
		C16,17.6,17.2,21.4,18.4,25.1z M21.7,13.9c0.6,3.8,1.2,7.5,1.8,11.2c0,0,0.1,0,0.1,0c1.2-3.8,2.4-7.5,3.6-11.3
		c-0.3-0.1-0.6-0.2-0.9-0.3c0-0.4,0.1-0.7,0.1-1.1c-1.3,0-2.5,0-3.7,0c0,0.5-0.1,0.9-0.1,1.3C22.2,13.8,22,13.9,21.7,13.9z
		 M6.5,21.6c0,3.4,0,6.7,0,10c1.5,0,3,0,4.5,0c0-3.4,0-6.7,0-10C9.5,21.6,8,21.6,6.5,21.6z M31,21.6c0,3.4,0,6.7,0,10
		c1.5,0,3,0,4.5,0c0-3.4,0-6.7,0-10C34,21.6,32.6,21.6,31,21.6z M22.9,27.5c-0.6-3.9-1.2-7.7-1.8-11.5c-0.1,0-0.1,0-0.2,0
		c-0.6,3.8-1.2,7.6-1.8,11.5C20.4,27.5,21.6,27.5,22.9,27.5z M14.6,16c0,0-0.1,0-0.1,0c0,3.8,0,7.7,0,11.5c1.3,0,2.5,0,3.8,0
		C17,23.6,15.8,19.8,14.6,16z M27.6,16c0,0-0.1,0-0.1,0c-1.2,3.8-2.4,7.6-3.7,11.5c1.3,0,2.6,0,3.8,0C27.6,23.6,27.6,19.8,27.6,16z
		 M28.5,14c0,0.4,0,0.6,0,0.9c0,3.8,0,7.6,0,11.3c0,1.4,0,1.4,1.4,1.2c0,0,0.1-0.1,0.1-0.1c0.3-1.5,0.1-14.6-0.3-15.1
		c-0.1,0.7-0.3,1.2-0.4,1.8C29.1,14.1,28.8,14,28.5,14z M12,27.5c0.3,0,0.6,0,0.9,0c0.5,0,0.6-0.2,0.6-0.6c0-4.2,0-8.3,0-12.5
		c0-0.1,0-0.3-0.1-0.4c-0.3,0-0.5,0-0.8,0c-0.1-0.6-0.3-1.1-0.4-1.6c-0.1,0-0.2,0-0.3,0.1C12,17.5,12,22.4,12,27.5z M20.3,12.9
		c0.5,0,0.9,0,1.3,0c0-0.8,0-1.6,0-2.4c-0.5,0-0.9,0-1.3,0C20.3,11.3,20.3,12.1,20.3,12.9z M13.4,13.1c0.5-0.1,0.9-0.1,1.4-0.2
		c-0.1-0.8-0.2-1.6-0.4-2.5c-0.5,0.1-0.9,0.1-1.4,0.2C13.1,11.5,13.2,12.2,13.4,13.1z M28.6,13.1c0.1-0.9,0.3-1.6,0.4-2.5
		c-0.5-0.1-0.9-0.1-1.4-0.2c-0.1,0.8-0.2,1.6-0.4,2.5C27.7,13,28.1,13,28.6,13.1z"/>
	<path d="M10.5,24.6c0,1-0.7,1.7-1.7,1.7c-1,0-1.7-0.7-1.7-1.7c0-1,0.8-1.7,1.7-1.7C9.7,22.9,10.5,23.6,10.5,24.6z M9.6,24.6
		c0-0.5-0.3-0.9-0.8-0.9c-0.5,0-0.8,0.3-0.8,0.9c0,0.5,0.3,0.8,0.8,0.8C9.3,25.5,9.5,25.2,9.6,24.6z"/>
	<path d="M8.8,30.5c-1,0-1.7-0.8-1.7-1.7c0-1,0.8-1.7,1.7-1.7c1,0,1.7,0.7,1.7,1.7C10.5,29.7,9.7,30.5,8.8,30.5z M9.6,28.8
		c0-0.5-0.3-0.9-0.8-0.9c-0.5,0-0.8,0.3-0.8,0.8c0,0.5,0.3,0.9,0.8,0.9C9.2,29.6,9.5,29.3,9.6,28.8z"/>
	<path d="M33.3,26.3c-1,0-1.7-0.7-1.7-1.7c0-1,0.7-1.7,1.7-1.8c1,0,1.7,0.7,1.7,1.7C35,25.6,34.2,26.3,33.3,26.3z M33.2,25.5
		c0.5,0,0.9-0.3,0.9-0.8c0-0.5-0.3-0.8-0.8-0.9c-0.5,0-0.8,0.3-0.8,0.8C32.4,25.1,32.7,25.4,33.2,25.5z"/>
	<path d="M33.3,27c1,0,1.7,0.8,1.6,1.8c0,1-0.8,1.7-1.8,1.6c-1,0-1.7-0.8-1.6-1.8C31.6,27.7,32.4,27,33.3,27z M33.2,29.6
		c0.5,0,0.9-0.3,0.9-0.8c0-0.5-0.3-0.8-0.8-0.9c-0.5,0-0.8,0.3-0.8,0.8C32.4,29.2,32.7,29.5,33.2,29.6z"/>
</g>
</svg>
