<?xml version="1.0" encoding="utf-8"?>
<!-- Generator: Adobe Illustrator 24.0.1, SVG Export Plug-In . SVG Version: 6.00 Build 0)  -->
<svg version="1.1" id="Layer_1" xmlns="http://www.w3.org/2000/svg" xmlns:xlink="http://www.w3.org/1999/xlink" x="0px" y="0px"
	 viewBox="0 0 42 42" style="enable-background:new 0 0 42 42;" xml:space="preserve">
<style type="text/css">
	.st0{fill:#EEEFF0;}
	.st1{fill:#FFFFFF;}
</style>
<circle class="st0" cx="21" cy="21" r="21"/>
<g>
	<path d="M10.9,15.3c6.8-0.1,5.5-1.4,6,5.1c0.2,2,0,4-0.4,5.9c-0.2,1.1-1.2,2-1.8,3c-0.2,0.3-0.5,0.6-0.5,1c-0.1,1.3,0,2.7,0,4.1
		c1.2,0,2.3,0,3.5,0c0-2.2,0.1-4.4,0-6.6c-0.2-3.9,0.4-7.5,2.1-11.1c0.9-1.7,0.7-4,0.9-6c0.1-1.2,0-2.3,0-3.6c1.1,0,2,0,3.1,0
		c0.2,3.1,0.4,6.3,0.6,9.5c0.2,0,0.3,0,0.5,0.1c0.2-0.4,0.4-0.8,0.6-1.3c1.7,0,3.4,0,5.3,0c0.6,4,1,7.9,0,11.8
		c-0.2,0.6-0.5,1.2-0.9,1.7c-1.8,1.9-2,2.7-1.4,5.6c1,0.1,2.1,0.1,3.2,0.2c0,0.1,0,0.3,0,0.4c-6.8,0-13.7,0-20.5,0
		c0-0.1,0-0.2-0.1-0.3c0.7-0.1,1.5-0.2,2.4-0.4c0-1.3,0-2.7,0-4c0-0.3-0.4-0.6-0.6-0.9c-0.7-1-1.8-1.9-2.1-3
		C9.9,22.8,10.4,19.1,10.9,15.3z M25.2,22.7c-0.4-2.3-0.8-4.1-1.1-6c-0.4-2.2-0.7-4.5-1-6.8c-0.5,0-1,0-1.4,0
		c-0.4,2.5-0.4,5.1-1.3,7.2c-1.6,3.4-2.2,6.8-2,10.5c0.1,2.3,0,4.5,0,6.8c2.8,0,5.3,0,7.7,0c1.4-3.9-1-7.2-1.3-10.8c-1,0-2,0-3,0
		c0,2.3,0,4.5,0,6.8c1.3,0.1,2.5,0.2,3.6,0.2c0,0.1,0,0.3,0,0.4c-1.5,0-2.9,0-4.3,0c0-2.8,0-5.4,0-8.1
		C22.2,22.7,23.4,22.7,25.2,22.7z M10.8,19.4c0.3,2.6,0.4,5.1,0.9,7.5c0.1,0.7,1.2,1.6,2,1.8c1.3,0.3,2-0.8,2.1-1.8
		c0.4-2.4,0.5-4.9,0.7-7.5C14.5,19.4,12.9,19.4,10.8,19.4z M26.6,19.4c0.2,2.7,0.3,5.4,0.5,8c0,0.5,0.3,1.3,0.5,1.3
		c0.6,0.1,1.3,0,1.8-0.3c0.4-0.3,0.8-0.9,0.9-1.5c0.3-2.5,0.5-4.9,0.7-7.5C29.1,19.4,27.7,19.4,26.6,19.4z M25.8,18.5
		c1.7,0,3.2,0,4.8,0c-0.1-0.9-0.2-1.7-0.3-2.4C25.8,15.5,25.7,15.5,25.8,18.5z M11.3,18.4c1.6,0,3.2,0,4.8,0
		c-0.1-0.9-0.2-1.6-0.3-2.4C11.8,15.4,11.3,15.6,11.3,18.4z M26.1,20.8c-0.2,0-0.5,0-0.7,0.1c0.1,2,0.3,4,0.4,6c0.2,0,0.4,0,0.6,0
		C26.4,24.8,26.2,22.8,26.1,20.8z"/>
	<path d="M12.1,20.3c0.3,2.4,0.5,4.9,0.8,7.3C11.4,25.4,11.7,22.8,12.1,20.3z"/>
	<path d="M28.9,27.6c0.3-2.4,0.6-4.8,0.9-7.2C30.7,21.9,30.2,26.2,28.9,27.6z"/>
</g>
</svg>
