<svg id="Layer_1" data-name="Layer 1" xmlns="http://www.w3.org/2000/svg" viewBox="0 0 22 22"><defs><style>.cls-1{fill:#eeeff0;}</style></defs><circle class="cls-1" cx="11" cy="11" r="11"/><path d="M7.17,6.06v.83a.58.58,0,0,0,.65.62.58.58,0,0,0,.63-.62c0-.26,0-.52,0-.78,0,0,0,0,0,0h5a1,1,0,0,1,0,.17v.69a.58.58,0,0,0,.63.58.59.59,0,0,0,.66-.58c0-.14,0-.29,0-.43V6.06H16a.81.81,0,0,1,.9.9v9a.79.79,0,0,1-.55.81.9.9,0,0,1-.28,0H5.92a.79.79,0,0,1-.83-.83v-9a.8.8,0,0,1,.83-.84ZM5.92,9.39v6.06a.45.45,0,0,0,.49.49h9.12c.38,0,.55-.17.55-.55V9.55c0-.05,0-.1,0-.16Z"/><path d="M14.5,6.2v.66a.27.27,0,0,1-.31.3.28.28,0,0,1-.32-.3V5.54a.28.28,0,0,1,.32-.31.27.27,0,0,1,.31.31V6.2Z"/><path d="M8.15,6.2v.66a.27.27,0,0,1-.31.3c-.21,0-.31-.1-.31-.3V5.54a.27.27,0,0,1,.31-.31.27.27,0,0,1,.31.31V6.2Z"/><path d="M8.58,13.79H9.7v1.13H8.58Z"/><path d="M14.15,11.33V10.17h.72c.14,0,.32,0,.39,0s0,.25,0,.38v.62s-.06.12-.09.12Z"/><path d="M8.57,12H9.7v1.14H8.57Z"/><path d="M10.43,10.18h1.14v1.14H10.43Z"/><path d="M12.29,10.18h1.14v1.14H12.29Z"/><path d="M11.57,12v1.13H10.44V12Z"/><path d="M13.42,13.12H12.29V12h1.13Z"/><path d="M15.28,13.12H14.15V12h1.13Z"/><path d="M7.84,14.92H6.71V13.79H7.84Z"/><path d="M11.57,14.93H10.44V13.79h1.13Z"/><path d="M13.43,14.93H12.3V13.79h1.13Z"/><path d="M14.15,14.92V13.79h1.13v1.13Z"/><path d="M7.84,12v1.13H6.71V12Z"/></svg>