<?xml version="1.0" encoding="utf-8"?>
<!-- Generator: Adobe Illustrator 24.0.1, SVG Export Plug-In . SVG Version: 6.00 Build 0)  -->
<svg version="1.1" id="Layer_1" xmlns="http://www.w3.org/2000/svg" xmlns:xlink="http://www.w3.org/1999/xlink" x="0px" y="0px"
	 viewBox="0 0 42 42" style="enable-background:new 0 0 42 42;" xml:space="preserve">
<style type="text/css">
	.st0{fill:#EEEFF0;}
	.st1{fill:#FFFFFF;}
</style>
<circle class="st0" cx="21" cy="21" r="21"/>
<g>
	<path d="M21,13.1c4.2,0,8.5,0,12.7,0c0.5,0,0.7,0.2,0.9,0.7c0.6,2.1,1.2,4.2,1.7,6.4c0.6,2.4,1.3,4.7,1.9,7.1
		c0.3,1-0.2,1.6-1.2,1.6c-8.1,0-16.2,0-24.3,0c-0.8,0-1.1-0.3-1.3-1c-0.6-2.3-1.2-4.6-1.9-6.9c-0.6-2.3-1.2-4.7-1.9-7
		c-0.2-0.6-0.1-0.8,0.6-0.8C12.4,13.1,16.7,13.1,21,13.1z M8.4,13.9c0.1,0.3,0.1,0.5,0.2,0.6c0.5,2,1.1,4,1.6,6
		c0.6,2.3,1.2,4.6,1.8,6.9c0.1,0.5,0.3,0.6,0.8,0.6c8,0,16,0,23.9,0c0.7,0,0.8-0.1,0.6-0.8c-0.5-1.7-0.9-3.4-1.4-5.1
		c-0.7-2.6-1.4-5.2-2.1-7.8c-0.1-0.5-0.3-0.6-0.8-0.6c-8,0-16.1,0-24.1,0C8.8,13.9,8.7,13.9,8.4,13.9z"/>
	<path d="M10.9,28.9c-0.1,0-0.2,0-0.4,0c-1.8,0-3.6,0-5.4,0c-1,0-1.5-0.7-1.2-1.6c0.5-1.8,0.9-3.5,1.4-5.3c0.6-2.1,1.1-4.3,1.7-6.4
		C7,15.4,7,15.2,7.2,15C8.4,19.6,9.6,24.2,10.9,28.9z"/>
	<path d="M24,24.4c-3.6,0-7.2,0-10.8,0c-0.1,0-0.3,0-0.4,0c-0.1-0.1-0.3-0.2-0.3-0.3c0-0.1,0.2-0.3,0.3-0.4c0.1-0.1,0.2,0,0.3,0
		c7.2-0.1,14.4-0.1,21.6-0.2c0.3,0,0.8-0.1,0.8,0.4c0,0.5-0.5,0.4-0.8,0.4c-3.6,0-6.9,0.2-10.5,0.2C24.1,24.4,24.1,24.4,24,24.4z"/>
	<path d="M31.7,21.7c-0.1-1-0.3-1.9-0.4-3c0.6,0,1.1,0,1.6,0.1c0.6,0.1,1.1,0.5,1.2,1.1c0.3,1-0.2,1.7-1.2,1.7
		C32.6,21.7,32.2,21.7,31.7,21.7z M32.1,19.4c0.1,0.6,0.2,1.1,0.3,1.8c0.4-0.1,0.8-0.2,1-0.4c0.2-0.2,0.1-0.7,0-1
		C33.1,19.4,32.6,19.3,32.1,19.4z"/>
	<path d="M23.2,21.8c-0.2-1-0.3-1.9-0.5-2.9c0.5,0,1,0,1.5,0c0.4,0,0.7,0.3,0.8,0.7c0.1,0.4,0,0.7-0.4,0.9c0.3,0.4,0.6,0.8,0.9,1.2
		c-0.6,0.2-0.8,0.1-1.1-0.4c-0.2-0.2-0.3-0.5-0.5-0.7c0,0-0.1,0-0.1,0.1c0,0.3,0.1,0.7,0.1,1.1C23.6,21.7,23.4,21.7,23.2,21.8z
		 M23.6,20.1c0.3-0.1,0.5-0.2,0.7-0.3c0,0,0-0.3,0-0.3c-0.2-0.1-0.5-0.2-0.8-0.3C23.5,19.6,23.5,19.8,23.6,20.1z"/>
	<path d="M11.7,18.9c0.5,0,1,0,1.5,0c0.4,0,0.7,0.3,0.8,0.7c0.1,0.4,0,0.7-0.4,1c0.3,0.4,0.6,0.8,0.9,1.2c-0.5,0.1-0.8,0.1-1.1-0.4
		c-0.1-0.3-0.4-0.5-0.5-0.8c-0.1,0-0.1,0-0.2,0.1c0,0.4,0.1,0.7,0.1,1.1c-0.2,0-0.4,0-0.7,0C12,20.8,11.9,19.9,11.7,18.9z
		 M12.5,19.4c0.1,0.3-0.1,0.8,0.5,0.7c0.2,0,0.4-0.2,0.4-0.3C13.3,19.3,12.9,19.4,12.5,19.4z"/>
	<path d="M20,18.8c0.7,0,1.3,0,1.9,0c0,0.2,0.1,0.3,0.1,0.6c-0.4,0-0.8,0-1.3,0c0.1,1,0.9,0.3,1.3,0.7c0,0,0,0.2,0.1,0.4
		c-0.4,0-0.8,0-1.2,0c-0.1,0.5,0,0.7,0.5,0.6c0.1,0,0.3,0,0.4,0c0.4,0,0.6,0.2,0.4,0.6c-0.6,0-1.1,0-1.7,0c-0.1,0-0.3-0.2-0.3-0.3
		C20.3,20.6,20.1,19.7,20,18.8z"/>
	<path d="M16.8,20.5c-0.4,0-0.7,0-1.1,0c-0.1,0.6,0,0.6,0.5,0.6c0.3,0,0.5,0,0.8,0c0,0.2,0,0.4,0.1,0.6c-0.6,0-1.2,0-1.8,0
		c-0.1,0-0.2-0.1-0.2-0.2c-0.2-0.9-0.3-1.8-0.4-2.8c0.6,0,1.2,0,1.8,0c0.1,0,0.2,0.3,0.4,0.4c0,0-0.1,0.1-0.1,0.1
		c-0.4,0-0.8,0-1.2,0c-0.1,0.4,0,0.6,0.4,0.6c0.1,0,0.3,0,0.4,0C16.7,19.9,16.8,20.1,16.8,20.5z"/>
	<path d="M29.5,20.6c0,0.2,0.1,0.4,0.1,0.6c0.4,0,0.9,0,1.3,0c0,0.2,0.1,0.4,0.1,0.6c-0.7,0-1.3,0-2,0c-0.2-1-0.3-1.9-0.5-2.9
		c0.7,0,1.3,0,1.9,0c0,0.2,0,0.3,0.1,0.5c-0.4,0-0.8,0-1.3,0c0,0.2,0.1,0.4,0.1,0.6c0.4,0,0.8,0,1.2,0c0,0.2,0.1,0.3,0.1,0.5
		C30.3,20.5,30,20.5,29.5,20.6z"/>
	<path d="M17.5,21.5c0.2-0.2,0.3-0.3,0.4-0.5c0.2,0.1,0.4,0.2,0.6,0.2c0.1,0,0.3-0.1,0.5-0.1c-0.1-0.1-0.2-0.3-0.3-0.4
		c-0.2-0.1-0.4-0.2-0.7-0.3c-0.5-0.2-0.6-0.5-0.6-0.9c0-0.4,0.3-0.7,0.7-0.7c0.4,0,0.8,0.1,1.3,0.2c-0.2,0.3-0.3,0.4-0.4,0.5
		c-0.2-0.1-0.4-0.2-0.6-0.2c-0.1,0-0.3,0.1-0.4,0.2c0.1,0.1,0.1,0.3,0.2,0.3c0.2,0.1,0.4,0.1,0.5,0.2c0.6,0.2,0.9,0.6,0.8,1.2
		c-0.1,0.4-0.6,0.7-1.1,0.6C18.2,21.8,17.9,21.6,17.5,21.5z"/>
	<path d="M25.3,18.8c0.5-0.1,0.8-0.1,1,0.4c0.2,0.5,0.5,1,0.8,1.5c0.1-0.7,0.2-1.3,0.4-2c0.2,0,0.5,0,0.7,0
		c-0.2,0.9-0.4,1.8-0.6,2.7c-0.1,0.3-0.7,0.3-0.8,0C26.2,20.7,25.7,19.8,25.3,18.8z"/>
</g>
</svg>
