<?xml version="1.0" encoding="utf-8"?>
<!-- Generator: Adobe Illustrator 24.0.1, SVG Export Plug-In . SVG Version: 6.00 Build 0)  -->
<svg version="1.1" id="Layer_1" xmlns="http://www.w3.org/2000/svg" xmlns:xlink="http://www.w3.org/1999/xlink" x="0px" y="0px"
	 viewBox="0 0 42 42" style="enable-background:new 0 0 42 42;" xml:space="preserve">
<style type="text/css">
	.st0{fill:#EEEFF0;}
	.st1{fill:#FFFFFF;}
</style>
<circle class="st0" cx="21" cy="21" r="21"/>
<g>
	<path d="M4.2,17.9c0-2,1.1-3.5,2.8-4.1c1.3-0.5,2.7-0.5,4-0.1c2.3,0.7,3.4,2.9,2.7,5.3c-0.5,1.6-1.6,2.8-2.7,4
		c-0.7,0.7-1.5,1.4-2.2,2.1c-0.2,0.2-0.4,0.5-0.6,0.8c2,0,3.8,0,5.7,0c0,0.9,0,1.7,0,2.6c-3.3,0-6.6,0-10.1,0C4,28,4,27.4,4.3,27
		c0.7-1.2,1.4-2.4,2.3-3.4c1-1.2,2.2-2.1,3.3-3.2c0.8-0.8,1.4-1.7,1.2-2.9c-0.1-0.9-0.7-1.5-1.6-1.5c-1.1-0.1-1.8,0.3-2.1,1.1
		c-0.1,0.3-0.2,0.7-0.3,1.2C6.1,18.1,5.2,18,4.2,17.9z"/>
	<path d="M23.3,28.6c-1,0-1.8,0-2.8,0c0-3.5,0-7.1,0-10.6c-1.2,0.7-2.4,1.4-3.8,2.1c0-1,0-1.8,0-2.5c0-0.2,0.3-0.4,0.5-0.5
		c1.5-0.8,2.9-1.7,3.7-3.3c0.1-0.1,0.3-0.3,0.4-0.3c0.6,0,1.3,0,2,0C23.3,18.5,23.3,23.5,23.3,28.6z"/>
	<path d="M34.2,15.9c0,1.3,0,2.5,0,3.8c1.3,0,2.6,0,4,0c0,1,0,1.8,0,2.7c-1.3,0-2.6,0-3.9,0c0,1.3,0,2.6,0,3.9c-0.9,0-1.7,0-2.6,0
		c0-1.3,0-2.5,0-3.8c-1.4,0-2.6,0-3.9,0c0-0.9,0-1.8,0-2.8c1.3,0,2.6,0,3.9,0c0-1.3,0-2.6,0-3.8C32.5,15.9,33.3,15.9,34.2,15.9z"/>
</g>
</svg>
