<svg id="Layer_1" data-name="Layer 1" xmlns="http://www.w3.org/2000/svg" viewBox="0 0 22 22"><defs><style>.cls-1{fill:#eeeff0;}</style></defs><circle class="cls-1" cx="11" cy="11" r="11"/><path d="M2.68,8.64c.24-.12.39-.21.55-.27l7-2.76a1.93,1.93,0,0,1,1.49,0l7,2.77c.15.06.29.14.54.26a5.78,5.78,0,0,1-.49.34c-2.39,1.1-4.77,2.19-7.15,3.3a1.59,1.59,0,0,1-1.38,0c-1.71-.8-3.42-1.58-5.13-2.36L4.5,9.62c.09,1,.21,1.94.25,2.86s0,1.81,0,2.72c0,.1-.22.28-.33.27s-.34-.18-.33-.27a9.64,9.64,0,0,1,.14-3A6.48,6.48,0,0,0,4.3,11C4.46,10,4.23,9.15,3,8.89,2.93,8.88,2.86,8.78,2.68,8.64Z"/><path d="M6.38,13.13c0-.39,0-.79,0-1.18s.21-.59.65-.39c1.06.47,2.11.95,3.15,1.45a1.7,1.7,0,0,0,1.61,0c1-.48,2-.93,3-1.39.65-.3.76-.23.82.49s.1,1.32.14,2a.91.91,0,0,1-.53,1c-1,.45-2.09.89-3.16,1.28a3.53,3.53,0,0,1-2.52-.1c-.85-.32-1.68-.7-2.51-1.05a1.12,1.12,0,0,1-.77-1.28c0-.27,0-.53.05-.8Z"/></svg>