<?xml version="1.0" encoding="utf-8"?>
<!-- Generator: Adobe Illustrator 24.0.1, SVG Export Plug-In . SVG Version: 6.00 Build 0)  -->
<svg version="1.1" id="Layer_1" xmlns="http://www.w3.org/2000/svg" xmlns:xlink="http://www.w3.org/1999/xlink" x="0px" y="0px"
	 viewBox="0 0 42 42" style="enable-background:new 0 0 42 42;" xml:space="preserve">
<style type="text/css">
	.st0{fill:#EEEFF0;}
	.st1{fill:#FFFFFF;}
</style>
<circle class="st0" cx="21" cy="21" r="21"/>
<g>
	<path d="M18.6,13.5c0.2-0.4,0.3-0.7,0.5-1.1c-1.6-1.3-3.2-2.6-4.9-4c0.2-0.3,0.4-0.5,0.6-0.7c0.9,0.7,1.7,1.4,2.6,2.1
		c0.7,0.6,1.5,1.2,2.3,1.8c0.2,0.1,0.4,0.1,0.6,0.1c0.4,0,0.8-0.1,1.2,0c0.4,0.1,0.6,0,0.9-0.2c1.5-1.3,3.1-2.5,4.7-3.8
		c0.2,0.2,0.4,0.5,0.6,0.7c-1.6,1.3-3.3,2.7-4.9,4c0.2,0.3,0.3,0.6,0.4,0.9c0.1,0.1,0.3,0.2,0.5,0.2c2.7,0,5.3,0,8,0
		c1.7,0,2.6,0.8,2.6,2.6c0,4.2,0,8.4,0,12.5c0,1.9-0.4,2.5-2.3,2.9c0,0.5,0,1,0,1.5c0,0.5-0.2,1-0.7,1.2c-0.5,0.3-1,0.2-1.4-0.2
		c-1.1-0.8-2.2-1.6-3.2-2.3c-0.2-0.2-0.5-0.3-0.8-0.3c-3.3,0-6.7,0-10,0c-0.3,0-0.5,0.1-0.7,0.2c-1.1,0.7-2.1,1.5-3.2,2.3
		c-0.5,0.3-0.9,0.5-1.5,0.2c-0.6-0.3-0.7-0.8-0.7-1.4c0-0.5,0-0.9,0-1.4c-0.3-0.1-0.5-0.1-0.7-0.1c-1-0.3-1.5-1.1-1.5-2.3
		c0-2.7,0-5.5,0-8.2c0-1.7,0-3.3,0-5c0-1.6,0.9-2.5,2.5-2.5c2.7,0,5.3,0,8,0C18.2,13.5,18.4,13.5,18.6,13.5z M21,14.4
		c-3.6,0-7.3,0-10.9,0c-1.2,0-1.6,0.4-1.6,1.6c0,1.7,0,3.5,0,5.2c0,2.6,0,5.1,0,7.7c0,1.1,0.4,1.5,1.5,1.5c7.3,0,14.6,0,21.8,0
		c1.1,0,1.5-0.4,1.5-1.5c0-4.4,0-8.7,0-13.1c0-1-0.4-1.5-1.5-1.5C28.3,14.4,24.7,14.4,21,14.4z M10.9,31.5c0,0.6,0,1,0,1.5
		c0,0.4,0.2,0.5,0.5,0.2c0.4-0.2,0.7-0.5,1.1-0.8c0.4-0.3,0.9-0.6,1.4-1C12.8,31.5,11.9,31.5,10.9,31.5z M28.3,31.5
		c0,0,0,0.1-0.1,0.1c0.8,0.6,1.6,1.1,2.4,1.7c0.3,0.2,0.5,0.1,0.5-0.3c0-0.5,0-1,0-1.5C30.2,31.5,29.2,31.5,28.3,31.5z M22.3,13.4
		c-0.3-0.6-0.7-0.9-1.4-0.9c-0.6,0-1,0.4-1.1,0.9C20.6,13.4,21.4,13.4,22.3,13.4z"/>
	<path d="M18.9,15.5c2.4,0.2,4.8,0.3,7.2,0.5c1.1,0.1,1.7,0.8,1.8,1.9c0.3,3,0.3,6.1,0,9.1c-0.1,1.1-0.7,1.8-1.8,1.9
		c-4,0.4-7.9,0.5-11.9,0.2c-0.9-0.1-1.9-0.1-2.8-0.3c-1-0.1-1.6-0.8-1.7-1.8c-0.3-3.1-0.3-6.1,0-9.2c0.1-1.1,0.7-1.8,1.9-1.9
		C14.1,15.8,16.5,15.7,18.9,15.5z M18.9,16.5c-2.4,0.2-4.8,0.3-7.1,0.5c-0.6,0-0.9,0.4-1,1c-0.3,3-0.3,5.9,0,8.9
		c0.1,0.8,0.3,1.1,1.1,1.1c1.7,0.1,3.4,0.3,5.1,0.3c2.9,0,5.9-0.2,8.8-0.3c0.8,0,1.1-0.3,1.1-1.1c0.3-3,0.2-6,0-8.9c0-0.6-0.4-1-1-1
		C23.6,16.8,21.3,16.6,18.9,16.5z"/>
	<path d="M29.1,18.6c0-0.9,0.7-1.6,1.6-1.6c0.9,0,1.6,0.7,1.6,1.6c0,0.9-0.8,1.6-1.6,1.6C29.8,20.3,29.1,19.5,29.1,18.6z M31.4,18.8
		c0-0.1,0-0.2,0-0.3c-0.2-0.2-0.5-0.4-0.7-0.4c-0.4,0-0.6,0.2-0.6,0.6c0,0.4,0.3,0.6,0.6,0.6C30.9,19.2,31.1,18.9,31.4,18.8z"/>
	<path d="M32.2,22.6c0,0.9-0.7,1.6-1.6,1.6c-0.9,0-1.6-0.7-1.6-1.6c0-0.9,0.7-1.6,1.6-1.6C31.5,21,32.2,21.7,32.2,22.6z M30.5,23.3
		c0.1,0,0.2,0,0.2,0c0.2-0.2,0.5-0.5,0.5-0.7c0-0.2-0.3-0.5-0.5-0.6c-0.4-0.1-0.7,0.2-0.6,0.6C30.1,22.8,30.3,23.1,30.5,23.3z"/>
</g>
</svg>
