<?xml version="1.0" encoding="utf-8"?>
<!-- Generator: Adobe Illustrator 24.0.1, SVG Export Plug-In . SVG Version: 6.00 Build 0)  -->
<svg version="1.1" id="Layer_1" xmlns="http://www.w3.org/2000/svg" xmlns:xlink="http://www.w3.org/1999/xlink" x="0px" y="0px"
	 viewBox="0 0 42 42" style="enable-background:new 0 0 42 42;" xml:space="preserve">
<style type="text/css">
	.st0{fill:#EEEFF0;}
	.st1{fill:#FFFFFF;}
</style>
<circle class="st0" cx="21" cy="21" r="21"/>
<g>
	<path d="M21,6.7c8.4,0,15.3,6.9,15.3,15.3c0,8.4-6.9,15.3-15.3,15.2c-8.4,0-15.2-6.9-15.2-15.3C5.8,13.6,12.6,6.7,21,6.7z
		 M11.4,14.7C8,19.1,7.9,26.1,12.6,30.6c4.7,4.5,11.5,4.2,15.6,0.9C22.7,26,17,20.4,11.4,14.7z M13.7,12.4
		C19.3,18,25,23.7,30.6,29.3c3.3-4.1,3.6-10.9-0.9-15.6C25.2,8.9,18.2,8.9,13.7,12.4z"/>
	<path d="M21.9,25.8c-3.3,0-6.5,0-9.8,0c0-0.3,0.1-0.5,0.1-0.8c0.3-0.9,0.9-1.5,1.6-2c1.4-0.8,3-1,4.6-0.7c0.1,0,0.1,0.1,0.2,0.1
		c1.1,1.1,2.1,2.1,3.2,3.2C21.8,25.7,21.8,25.8,21.9,25.8z"/>
	<path d="M21.9,27.8c-0.1,0.3-0.1,0.5-0.2,0.8c-0.3,1.1-1.3,1.8-2.4,1.8c-1.6,0-3.1,0-4.7,0c-1.4,0-2.5-1.1-2.6-2.4c0,0,0-0.1,0-0.1
		C15.4,27.8,18.6,27.8,21.9,27.8z"/>
	<path d="M17,27.3c-1.6,0-3.2,0-4.9,0c-0.4,0-0.6-0.3-0.5-0.6c0.1-0.2,0.2-0.3,0.4-0.3c0.1,0,0.2,0,0.3,0c3.1,0,6.2,0,9.4,0
		c0.1,0,0.2,0,0.2,0c0.2,0,0.4,0.2,0.4,0.5c0,0.2-0.2,0.4-0.4,0.4c-0.1,0-0.1,0-0.2,0C20.2,27.3,18.6,27.3,17,27.3z"/>
	<path d="M26.3,30.3c-1.1,0-2.1,0-3.2,0c-0.2-1.2-0.3-2.5-0.5-3.7C23.9,27.8,25.1,29.1,26.3,30.3z"/>
	<path d="M29.2,27.3c-0.1-0.2-0.3-0.3-0.4-0.5c-2.3-2.3-4.6-4.6-6.8-6.9c-0.1-0.1-0.1-0.1-0.1-0.2c-0.1-0.7-0.2-1.5-0.3-2.3
		c3,0,6,0,9,0C30,20.7,29.6,24,29.2,27.3C29.2,27.2,29.2,27.2,29.2,27.3z"/>
	<path d="M22.8,16c-0.1-0.5-0.1-0.9-0.2-1.4c-0.1-0.7-0.2-1.5-0.3-2.2c0-0.3-0.2-0.4-0.4-0.4c-0.8,0-1.7,0-2.5,0c-0.1,0-0.1,0-0.2,0
		c0-0.3,0-0.6,0-1c0.1,0,0.1,0,0.2,0c0.8,0,1.7,0,2.5,0c0.7,0,1.3,0.5,1.4,1.2c0.2,1.2,0.3,2.4,0.5,3.6c0,0,0,0.1,0,0.1
		c0.1,0,0.2,0,0.2,0c2.2,0,4.3,0,6.5,0c0.1,0,0.1,0,0.2,0c0.2,0,0.4,0.2,0.4,0.5c0,0.2-0.2,0.4-0.4,0.5c-0.1,0-0.2,0-0.2,0
		c-3,0-5.9,0-8.9,0c-0.1,0-0.1,0-0.2,0c-0.3,0-0.4-0.2-0.4-0.5c0-0.2,0.2-0.4,0.4-0.4c0.4,0,0.8,0,1.2,0C22.6,16,22.7,16,22.8,16z"
		/>
</g>
</svg>
