<?xml version="1.0" encoding="utf-8"?>
<!-- Generator: Adobe Illustrator 24.0.1, SVG Export Plug-In . SVG Version: 6.00 Build 0)  -->
<svg version="1.1" id="Layer_1" xmlns="http://www.w3.org/2000/svg" xmlns:xlink="http://www.w3.org/1999/xlink" x="0px" y="0px"
	 viewBox="0 0 42 42" style="enable-background:new 0 0 42 42;" xml:space="preserve">
<style type="text/css">
	.st0{fill:#EEEFF0;}
	.st1{fill:#FFFFFF;}
</style>
<circle class="st0" cx="21" cy="21" r="21"/>
<g>
	<path d="M7.8,12.7c-0.1-1,0.4-1.3,1.3-1.3c0.9,0,1.6,0.2,1.4,1.3c1.4,0,2.7,0,4.1,0c0.2-0.5,0.3-0.9,0.5-1.4
		c0.5-1.2,1.3-1.8,2.6-1.9c2.2,0,4.4,0,6.6,0c1.3,0,2.1,0.7,2.6,1.9c0.2,0.4,0.3,0.9,0.5,1.4c2.3,0,4.7,0,7,0c1.8,0,2.4,0.6,2.4,2.4
		c0,5.1,0,10.1,0,15.2c0,1.7-0.6,2.3-2.3,2.3c-9,0-18,0-27,0c-1.7,0-2.3-0.6-2.3-2.4c0-5,0-9.9,0-14.9C5.2,13.4,5.6,12.9,7.8,12.7z
		 M27.6,22.6c0-3.6-3-6.5-6.6-6.5c-3.7,0-6.6,3-6.6,6.6c0,3.6,3,6.5,6.6,6.5C24.6,29.3,27.6,26.3,27.6,22.6z M9.8,22.8
		c0-1.9,0-3.8,0-5.7c0-0.3-0.4-0.7-0.7-1c-0.2,0.3-0.5,0.7-0.6,1c0,3.7,0,7.5,0,11.2c0,0.3,0.4,0.6,0.6,0.9c0.2-0.3,0.6-0.6,0.6-0.9
		C9.8,26.5,9.8,24.6,9.8,22.8z M31.6,14.8c-0.2,0-0.4,0-0.5,0c-0.9-0.1-1.5,0.2-1.5,1.3c0,1.1,0.5,1.4,1.5,1.3c0.4,0,0.8,0,1.2,0
		c1,0,1.3-0.5,1.3-1.4C33.5,14.6,32.5,14.8,31.6,14.8z"/>
	<path d="M21,27.3c-2.5,0-4.6-2.1-4.6-4.6c0-2.6,2.1-4.7,4.7-4.6c2.5,0,4.5,2.2,4.5,4.7C25.6,25.3,23.5,27.3,21,27.3z M19.7,25.9
		c1.6,1,3.6,0.5,3.9-1C22.3,25.3,21,25.6,19.7,25.9z"/>
</g>
</svg>
