<?xml version="1.0" encoding="utf-8"?>
<!-- Generator: Adobe Illustrator 24.0.1, SVG Export Plug-In . SVG Version: 6.00 Build 0)  -->
<svg version="1.1" id="Layer_1" xmlns="http://www.w3.org/2000/svg" xmlns:xlink="http://www.w3.org/1999/xlink" x="0px" y="0px"
	 viewBox="0 0 42 42" style="enable-background:new 0 0 42 42;" xml:space="preserve">
<style type="text/css">
	.st0{fill:#EEEFF0;}
	.st1{fill:#FFFFFF;}
</style>
<circle class="st0" cx="21" cy="21" r="21"/>
<g>
	<path d="M21,33.1c-2.8,0-5.5,0-8.3,0c-2.3,0-3.8-1.5-3.8-3.8c0-5.5,0-11.1,0-16.6c0-2.2,1.8-3.8,3.9-3.7c1.4,0.1,2.8,0,4.2,0
		c1.6,0,3.1,0,4.7,0c2.5,0,5,0,7.4,0c2.1-0.1,3.9,1.6,3.9,3.9c-0.1,5.5-0.1,11,0,16.5c0,2.2-1.7,3.9-3.8,3.8
		C26.5,33,23.7,33.1,21,33.1C21,33.1,21,33.1,21,33.1z M32.6,21C32.6,21,32.6,21,32.6,21c0-2.8,0-5.6,0-8.3c0-2-1.3-3.3-3.3-3.3
		c-2.1,0-4.2,0-6.3,0c-0.9,0-1.9,0-2.8,0c-1.2,0-2.3,0-3.5,0c-1.2,0-2.5,0-3.7,0c-0.6,0-1.3,0.1-1.8,0.3c-1.2,0.6-1.8,1.7-1.8,3.1
		c0,5.5,0,11,0,16.5c0,2,1.3,3.3,3.3,3.3c5.5,0,11,0,16.6,0c2.1,0,3.3-1.3,3.3-3.3C32.6,26.5,32.6,23.8,32.6,21z"/>
	<path d="M14,23.3c0,1.7,0,3.3,0,5c-0.9,0-1.8,0-2.7,0c0-4.5,0-8.9,0-13.3c0.1,0,0.1,0,0.1,0c2.2,0,4.5,0,6.7,0.1
		c1.8,0.1,3.2,1.5,3.3,3.4c0.1,0.9,0.1,1.8-0.4,2.7c-0.8,1.5-2.1,2.1-3.6,2.2c-1,0-1.9,0-2.9,0.1C14.4,23.3,14.2,23.3,14,23.3z
		 M14,21c1.1-0.1,2.2-0.1,3.2-0.2c0.9-0.1,1.5-0.8,1.5-1.7c0-0.9-0.5-1.6-1.4-1.8c-1.1-0.1-2.2-0.1-3.3-0.2C14,18.5,14,19.7,14,21z"
		/>
	<path d="M12.9,12.9c0-0.7,0-1.2,0-1.8c0-0.1,0.2-0.2,0.3-0.2c0.1,0,0.3,0,0.4,0c3.9,0,7.8,0,11.7,0c0.2,0,0.3,0,0.5,0
		c0-0.1,0-0.2,0-0.3c0-0.7,0.1-0.8,0.7-0.4c0.8,0.5,1.6,0.9,2.5,1.4c0.4,0.3,0.4,0.4,0,0.7c-0.8,0.5-1.7,1-2.5,1.5
		c-0.5,0.3-0.6,0.2-0.6-0.3c0-0.1,0-0.3,0-0.4C21.5,12.9,17.3,12.9,12.9,12.9z"/>
	<path d="M23.8,21.8c1.8-1.8,3.6-3.7,5.5-5.7c0.7,0.7,1.4,1.3,2,2c0.3,0.3,0.2,0.7-0.1,0.9c-1.5,1.6-3,3.2-4.6,4.7
		c-0.3,0.3-0.8,0.3-1.1,0C25,23.2,24.5,22.5,23.8,21.8z"/>
	<path d="M22.9,21.1c-0.7-0.5-0.8-1-0.2-1.5c1.4-1.4,2.8-2.9,4.2-4.3c0.6-0.6,1-0.6,1.6,0.1C26.6,17.3,24.8,19.2,22.9,21.1z"/>
	<path d="M28.1,28.2c-0.5,0.2-0.7,0-0.9-0.4c-0.2-0.5-0.6-0.9-0.9-1.3c0,0.6,0,1.1,0,1.7c-0.6,0.1-0.6,0.1-0.6-0.4
		c0-0.8,0-1.7,0-2.5c0.4-0.1,0.7-0.1,0.9,0.3c0.3,0.5,0.6,1,1,1.4c0-0.6,0-1.2,0-1.8c0.2,0,0.4,0,0.6,0
		C28.1,26.3,28.1,27.2,28.1,28.2z"/>
	<path d="M18.8,25.2c0.5,0,1,0,1.5,0c0.6,0,0.9,0.2,1,0.7c0.1,0.4-0.1,0.8-0.6,1c0.3,0.4,0.6,0.8,0.9,1.3c-0.4,0.1-0.8,0.2-1-0.3
		c-0.1-0.2-0.2-0.4-0.4-0.6c-0.2-0.2-0.4-0.3-0.6-0.4c0,0-0.1,0.1-0.1,0.1c0,0.4,0,0.8,0,1.2c-0.2,0-0.4,0-0.6,0
		C18.8,27.2,18.8,26.3,18.8,25.2z M19.4,26.5c0.3,0,0.6,0,0.8,0c0.1,0,0.3-0.2,0.3-0.3c0-0.1-0.2-0.3-0.3-0.3c-0.3-0.1-0.5,0-0.8,0
		C19.4,26,19.4,26.2,19.4,26.5z"/>
	<path d="M31.3,26c-0.4,0.2-0.6,0.2-0.9-0.1c-0.1-0.2-0.5-0.2-0.7-0.2c-0.4,0-0.5,0.3-0.6,0.7c-0.1,0.4-0.1,0.9,0.4,1.1
		c0.3,0.1,0.6,0,1,0c0.1,0,0.2-0.2,0.3-0.4c-0.3,0-0.5,0-0.7-0.1c0-0.2,0-0.3,0-0.5c0.4,0,0.8,0,1.3,0c0,0.4,0,0.7,0,1.1
		c0,0.1-0.1,0.2-0.2,0.3c-0.6,0.4-1.5,0.4-2.1,0.1c-0.5-0.4-0.7-1.2-0.5-1.9c0.3-0.9,1.5-1.3,2.3-0.7C31.1,25.6,31.2,25.8,31.3,26z"
		/>
	<path d="M24.4,28.2c-0.5,0.2-0.9,0.1-1.1-0.4c-0.1-0.3-0.3-0.6-0.5-0.9c-0.7,0.3-0.4,0.8-0.5,1.3c-0.2,0-0.4,0-0.6,0c0-1,0-2,0-3
		c0.2,0,0.4,0,0.6,0c0,0.4,0,0.8,0,1.3c0.3-0.4,0.6-0.6,0.9-0.9c0.3-0.4,0.7-0.4,1.2-0.3c-0.3,0.3-0.5,0.6-0.8,0.8
		c-0.2,0.2-0.3,0.4-0.1,0.7C23.8,27.2,24.1,27.7,24.4,28.2z"/>
	<path d="M18.5,28.2c-0.5,0.1-0.7,0.1-0.9-0.4c0-0.1-0.2-0.2-0.3-0.2c-0.2,0-0.4,0-0.6,0c-0.1,0-0.3,0.1-0.4,0.3
		c-0.1,0.5-0.4,0.5-0.8,0.4c0.4-0.9,0.7-1.9,1.1-2.8c0.1-0.3,0.7-0.3,0.8,0C17.8,26.3,18.2,27.2,18.5,28.2z M17.4,27
		c-0.1-0.3-0.2-0.6-0.4-1c-0.1,0.4-0.2,0.7-0.4,1C16.9,27,17.1,27,17.4,27z"/>
	<path d="M18.8,29.5c0.5,0,0.9,0,1.4,0c0.4,0.1,0.7,0.5,0.7,1c0,0.6-0.2,1-0.7,1.2c-0.1,0-0.1,0-0.2,0.1c-1.1,0.2-1.3,0.1-1.3-1
		C18.8,30.3,18.8,29.9,18.8,29.5z M19.3,29.8c0,0.6,0,1.1,0,1.7c0.3-0.1,0.8-0.2,0.8-0.4c0.1-0.3,0.1-0.7,0-1
		C20.1,29.9,19.7,29.9,19.3,29.8z"/>
	<path d="M27.3,31.8c-0.8,0-1.2-0.4-1.2-1.2c0-0.7,0.5-1.2,1.2-1.2c0.7,0,1.2,0.5,1.2,1.2C28.5,31.3,28.1,31.8,27.3,31.8z
		 M26.7,30.6c0,0.5,0.2,0.8,0.6,0.8c0.4,0,0.7-0.3,0.7-0.8c0-0.5-0.2-0.8-0.6-0.8C26.9,29.8,26.7,30.1,26.7,30.6z"/>
	<path d="M30.8,31.8c-0.9,0-0.9-1-1.4-1.3c0,0.4,0,0.8,0,1.3c-0.2,0-0.3,0-0.5,0.1c0-0.8,0-1.5,0-2.3c0.3-0.1,0.5,0,0.7,0.3
		c0.2,0.4,0.5,0.7,0.8,1c0-0.4,0-0.9,0-1.3c0.2,0,0.3,0,0.5,0C30.8,30.2,30.8,31,30.8,31.8z"/>
	<path d="M15.7,31.7c-0.4,0.1-0.6,0.1-0.7-0.3c-0.1-0.4-0.5-0.2-0.7-0.2c-0.1,0-0.4,0.1-0.4,0.2c-0.1,0.3-0.3,0.4-0.7,0.3
		c0.3-0.7,0.6-1.4,0.9-2.1c0.1-0.3,0.6-0.2,0.7,0C15.1,30.3,15.4,31,15.7,31.7z M14.2,30.8c0.2,0,0.4,0,0.6,0
		c-0.1-0.2-0.2-0.4-0.3-0.7C14.3,30.4,14.3,30.6,14.2,30.8z"/>
	<path d="M23.4,31.7c-0.4,0.1-0.6,0.1-0.7-0.3c-0.1-0.4-0.4-0.2-0.6-0.2c-0.2,0-0.4,0.1-0.5,0.2c-0.1,0.3-0.3,0.3-0.7,0.3
		c0.3-0.7,0.6-1.5,0.9-2.2c0.1-0.2,0.6-0.2,0.7,0C22.8,30.3,23.1,31,23.4,31.7z M22.2,30.1c-0.1,0.3-0.2,0.5-0.3,0.7
		c0.2,0,0.4,0,0.6,0C22.4,30.6,22.3,30.4,22.2,30.1z"/>
	<path d="M11.3,29.5c0.4-0.2,0.6,0,0.7,0.3c0.1,0.4,0.3,0.8,0.5,1.3c0.2-0.5,0.3-0.9,0.5-1.3c0.1-0.4,0.1-0.4,0.7-0.3
		c-0.3,0.7-0.5,1.5-0.8,2.2c-0.1,0.2-0.5,0.2-0.6-0.1C11.8,30.9,11.5,30.2,11.3,29.5z"/>
	<path d="M25.2,25.2c0,1,0,1.9,0,2.9c0,0.1-0.2,0.2-0.3,0.2c-0.1,0-0.3-0.1-0.3-0.2c0-0.9,0-1.7,0-2.6C24.6,25,25,25.3,25.2,25.2z"
		/>
	<path d="M25.2,29.8c-0.3,0-0.5,0-0.8,0.1c0,0.6,0,1.2,0,1.9c-0.2,0-0.3,0-0.5,0c0-0.6,0-1.2,0-1.9c-0.2,0-0.4,0-0.5,0
		c-0.1,0-0.2-0.1-0.2-0.2c0,0,0.1-0.2,0.2-0.2c0.5,0,1.1,0,1.6,0C25,29.5,25.1,29.7,25.2,29.8z"/>
	<path d="M16.4,31.3c0.4,0,0.7,0,1,0c0.1,0,0.2,0.1,0.3,0.2c-0.1,0.1-0.2,0.2-0.3,0.2c-0.5,0-1,0-1.5,0c0-0.8,0-1.5,0-2.3
		c0.2,0,0.3,0,0.5,0C16.4,30.1,16.4,30.7,16.4,31.3z"/>
	<path d="M18.4,31.8c-0.2,0-0.3,0-0.5,0c0-0.8,0-1.5,0-2.3c0.2,0,0.3,0,0.5,0C18.4,30.2,18.4,31,18.4,31.8z"/>
	<path d="M25.3,29.5c0.4-0.1,0.6-0.1,0.6,0.3c0,0.5,0,1.1,0,1.6c0,0.1-0.2,0.2-0.3,0.3c-0.1-0.1-0.2-0.2-0.2-0.3
		C25.3,30.8,25.3,30.1,25.3,29.5z"/>
</g>
</svg>
