<svg id="Layer_1" data-name="Layer 1" xmlns="http://www.w3.org/2000/svg" viewBox="0 0 22 22"><defs><style>.cls-1{fill:#eeeff0;}</style></defs><circle class="cls-1" cx="11" cy="11" r="11"/><path d="M5,11.75c0-.15,0-.3,0-.45a1,1,0,0,0-.35-.6.38.38,0,0,1-.15-.29c0-.45,0-.9,0-1.35a1,1,0,0,1,.64-.91A2.13,2.13,0,0,1,6,8H7.65a2,2,0,0,1,.91.19,1,1,0,0,1,.6,1c0,.4,0,.8,0,1.19V12s0,.1-.06.13S9,12.08,9,12a1.78,1.78,0,0,0-1.26-.55H6a1.66,1.66,0,0,0-.9.26Z"/><path d="M9.42,10.54V9.16a1,1,0,0,1,.36-.84A1.57,1.57,0,0,1,10.56,8L11,8h1.55a2,2,0,0,1,1,.22,1,1,0,0,1,.54.87v1.28a.27.27,0,0,1-.12.23,1.14,1.14,0,0,0-.36.53.34.34,0,0,0,0,.1.27.27,0,0,1-.27.26H10.85A1.72,1.72,0,0,0,9.67,12l-.08.07s-.08,0-.1,0A.2.2,0,0,1,9.41,12V10.54Z"/><path d="M8.54,13.69h3.35c.15,0,.19.06.16.2l-.18.82c0,.13,0,.15-.18.15H5.17c-.12,0-.16,0-.16-.16v-.84c0-.13,0-.17.17-.17Z"/><path d="M10.92,5.44H9c-.14,0-.18-.05-.14-.18l.48-1.74c0-.09,0-.11.15-.11h1.1a.19.19,0,0,0,.22-.22V.38c0-.1.06-.16.15-.15s.11.06.11.15V3.14a.41.41,0,0,0,0,.16.2.2,0,0,0,.2.11h1.08c.13,0,.14,0,.18.14L13,5.22c0,.14.05.23-.18.22Z"/><path d="M3,13.25V11.61a.86.86,0,0,1,.92-.92.83.83,0,0,1,.85.84v3.39a.26.26,0,0,1-.28.28H3.16C3,15.2,3,15.15,3,15Z"/><path d="M7.08,13.45H5.18c-.11,0-.16,0-.16-.15,0-.39,0-.77,0-1.16A.15.15,0,0,1,5.08,12a1.4,1.4,0,0,1,.83-.3c.61,0,1.21,0,1.81,0a1.48,1.48,0,0,1,1.41,1.16,3,3,0,0,1,0,.42.13.13,0,0,1-.15.14H7.08Z"/><path d="M15.45,11.73h3a.36.36,0,0,1,.36.22.35.35,0,0,1-.33.48H12.43A.36.36,0,0,1,12,12.1a.35.35,0,0,1,.33-.37h3.08Z"/><path d="M15.58,13.88v1a.32.32,0,0,1-.35.36h-1a.43.43,0,0,1-.45-.46q0-.49,0-1a.25.25,0,0,1,0-.13c.15-.28.31-.56.47-.83a.19.19,0,0,1,.18-.11h.88a.19.19,0,0,1,.2.2v1Z"/><path d="M10.8,13.44H9.57c-.1,0-.15-.06-.16-.16a1.47,1.47,0,0,1,1.26-1.53,1.62,1.62,0,0,1,.31,0h.67c.13,0,.18.07.16.19a.6.6,0,0,0,.38.73.13.13,0,0,1,.09.17c0,.17-.07.35-.11.52a.15.15,0,0,1-.16.11H10.8Z"/><path d="M11.81,16.21c0-.14.06-.27.08-.39.22-1,.43-2,.65-3,0-.11.05-.13.17-.14h1.14c.13,0,.18.09.12.2l-.79,1.41-1,1.76a.25.25,0,0,1-.28.16Z"/><path d="M19,16.21h-.19a.27.27,0,0,1-.13-.1c-.18-.29-.34-.59-.51-.88-.27-.49-.55-1-.82-1.45l-.49-.87,0-.05a.11.11,0,0,1,.11-.17h1.19c.09,0,.13,0,.14.12.14.62.27,1.25.41,1.88s.21,1,.31,1.45A.15.15,0,0,1,19,16.21Z"/><path d="M14.69,11.47H14c-.13,0-.2-.07-.19-.19a.69.69,0,0,1,.25-.48.94.94,0,0,1,1.28.09.58.58,0,0,1,.16.4.16.16,0,0,1-.18.18Z"/></svg>