<?xml version="1.0" encoding="utf-8"?>
<!-- Generator: Adobe Illustrator 24.0.1, SVG Export Plug-In . SVG Version: 6.00 Build 0)  -->
<svg version="1.1" id="Layer_1" xmlns="http://www.w3.org/2000/svg" xmlns:xlink="http://www.w3.org/1999/xlink" x="0px" y="0px"
	 viewBox="0 0 42 42" style="enable-background:new 0 0 42 42;" xml:space="preserve">
<style type="text/css">
	.st0{fill:#EEEFF0;}
	.st1{fill:#FFFFFF;}
</style>
<circle class="st0" cx="21" cy="21" r="21"/>
<g>
	<path d="M25.6,23.6c0.7,0.4,1.5,0.7,2,1.3c0.5,0.5,0.9,1.1,1.1,1.8c0.4,1.1,0.6,2.2,1,3.3c0.1,0.2,0.3,0.4,0.5,0.5
		c1.1,0.4,1.8,1.2,1.7,2.4c0,0.7-0.5,1.2-1.2,1.2c-1.1,0-2.3,0-3.4,0c-0.6,0-1-0.3-1.2-1c-0.4-1.3-0.8-2.6-1.1-3.9
		c-0.3-0.9-0.6-1.2-1.6-1.2c-1.2,0-2.4,0-3.6,0c-1.7,0-3.1-1-3.6-2.7c-0.8-2.5-1.5-4.9-2.2-7.4c-0.4-1.5,0.5-2.8,2-3
		c1.6-0.2,2.9,0.5,3.6,1.9c0.6,1.3,1.3,2.6,2,4c0.2,0.4,0.4,0.5,0.8,0.6c0.7,0.1,1.4,0.2,2.2,0.3C25.8,21.8,26.1,22.5,25.6,23.6z
		 M30.6,32.8c0-0.8-0.3-1.2-1.1-1.2c-0.5,0-0.8-0.3-0.9-0.8c-0.3-1.3-0.7-2.5-1.1-3.8c-0.4-1.3-1.2-1.9-2.5-2.2
		c-0.3-0.1-0.7-0.1-1-0.1c-1.3,0-2.6,0-3.9,0c-0.2,0-0.5,0-0.6-0.2c-0.5-0.5-0.9-0.9-1.3-1.4c-0.2-0.3-0.2-0.6,0-0.8
		c0.3-0.3,0.6-0.2,0.9,0.1c0.3,0.3,0.5,0.6,0.8,0.8c0.2,0.2,0.5,0.3,0.7,0.3c0.9,0,1.8,0,2.7,0c0.6,0,0.9-0.2,1-0.8
		c-0.9-0.1-1.8-0.3-2.7-0.4c-0.6-0.1-1-0.3-1.3-0.9c-0.7-1.4-1.3-2.8-2-4.2c-0.5-0.9-1.2-1.4-2.2-1.3c-0.8,0.1-1.3,0.7-1,1.5
		c0.7,2.4,1.5,4.9,2.2,7.3c0.4,1.2,1.2,1.9,2.5,1.9c1.2,0,2.4,0,3.6,0c1.3,0,2.2,0.7,2.6,1.9c0.4,1.2,0.7,2.5,1.1,3.7
		c0,0.2,0.2,0.4,0.4,0.4C28.6,32.8,29.6,32.8,30.6,32.8z"/>
	<path d="M19.5,30.5c0,0.9,0,1.8,0,2.7c0,0.6-0.2,0.8-0.6,0.8c-0.4,0-0.6-0.3-0.6-0.8c0-0.9,0-1.8,0-2.7c-0.3,0-0.5-0.1-0.7-0.1
		c-2.1-0.4-3.5-1.7-4.1-3.7c-1.1-3.6-2.1-7.2-3.2-10.8c0,0,0-0.1,0-0.1c-0.1-0.4,0-0.7,0.4-0.8c0.4-0.1,0.7,0.1,0.8,0.5
		c0.3,1.1,0.6,2.1,0.9,3.2c0.8,2.6,1.5,5.1,2.2,7.7c0.5,1.8,2.1,2.9,4.1,3c1,0,2,0,3,0c0.5,0,0.9,0.2,0.8,0.6c0,0.5-0.4,0.6-0.8,0.6
		c-0.7,0-1.4,0-2.1,0C19.6,30.5,19.6,30.5,19.5,30.5z"/>
	<path d="M20,11.1c0,1.7-1.4,3.1-3.1,3.1c-1.7,0-3.1-1.4-3.1-3.1c0-1.7,1.4-3.1,3.1-3.1C18.6,7.9,20,9.3,20,11.1z M18.8,11
		c0-1-0.9-1.9-1.9-1.8c-1,0-1.8,0.9-1.8,1.9c0,1,0.9,1.9,1.9,1.8C18,12.9,18.8,12.1,18.8,11z"/>
</g>
</svg>
