<?xml version="1.0" encoding="utf-8"?>
<!-- Generator: Adobe Illustrator 24.0.1, SVG Export Plug-In . SVG Version: 6.00 Build 0)  -->
<svg version="1.1" id="Layer_1" xmlns="http://www.w3.org/2000/svg" xmlns:xlink="http://www.w3.org/1999/xlink" x="0px" y="0px"
	 viewBox="0 0 42 42" style="enable-background:new 0 0 42 42;" xml:space="preserve">
<style type="text/css">
	.st0{fill:#EEEFF0;}
	.st1{fill:#FFFFFF;}
</style>
<circle class="st0" cx="21" cy="21" r="21"/>
<g>
	<path d="M22.3,18.4c0.8,0,1.6,0,2.4,0c0.6,0,1,0.3,1.3,0.9c0.2,0.6,0.1,1.1-0.4,1.5c-0.2,0.2-0.6,0.4-1,0.4c-1.1,0-2.3,0-3.4,0
		c-0.3,0-0.6,0.1-1,0.1c-0.5,0-0.6,0.2-0.6,0.6c0,0.4,0.1,0.5,0.5,0.5c2,0,4.1,0,6.1,0c0.7,0,1.1,0.3,1.4,0.9
		c1.4,2.6,2.9,5.2,4.4,7.8c0.2,0.3,0.4,0.7,0.5,1.1c0.3,1.1-0.3,2.1-1.4,2.2c-0.7,0.1-1.2-0.3-1.5-0.9c-0.9-1.5-1.8-3-2.6-4.6
		c-0.3-0.6-0.7-1.1-1-1.7c-0.2-0.4-0.4-0.5-0.9-0.5c-2.7,0-5.4,0-8.1,0c-1.8,0-3-1-3-2.9c0-2.8,0-5.6,0.1-8.3c0-1.4,1.1-2.5,2.5-2.5
		c1.3-0.1,2.6,0.9,2.7,2.2c0.1,0.8,0.1,1.6,0.1,2.5c0,0.5,0.1,0.7,0.7,0.7C20.9,18.4,21.6,18.4,22.3,18.4
		C22.3,18.4,22.3,18.4,22.3,18.4z"/>
	<path d="M13.2,19.6c0,1.1,0.1,2,0,3c-0.1,0.5-0.5,0.9-0.7,1.4c-1.3,2.5-1.2,5,0.2,7.4c1.6,2.6,4,3.9,7,3.7c3.1-0.2,5.3-1.8,6.6-4.6
		c0.1-0.1,0.1-0.3,0.2-0.5c0.5,0.8,0.9,1.4,1.3,2.2c0.1,0.1,0,0.4-0.1,0.5c-3,5.2-10.3,6.4-14.8,2.5C9.5,32.3,8.4,28,9.9,24
		c0.6-1.7,1.6-3,2.9-4.1C12.9,19.8,13,19.7,13.2,19.6z"/>
	<path d="M16.7,12.2c-1.6,0-2.8-1.3-2.8-2.8c0-1.6,1.3-2.8,2.8-2.8c1.5,0,2.8,1.3,2.8,2.8C19.5,10.9,18.3,12.2,16.7,12.2z"/>
</g>
</svg>
