<?xml version="1.0" encoding="utf-8"?>
<!-- Generator: Adobe Illustrator 24.0.1, SVG Export Plug-In . SVG Version: 6.00 Build 0)  -->
<svg version="1.1" id="Layer_1" xmlns="http://www.w3.org/2000/svg" xmlns:xlink="http://www.w3.org/1999/xlink" x="0px" y="0px"
	 viewBox="0 0 42 42" style="enable-background:new 0 0 42 42;" xml:space="preserve">
<style type="text/css">
	.st0{fill:#EEEFF0;}
	.st1{fill:#FFFFFF;}
</style>
<circle class="st0" cx="21" cy="21" r="21"/>
<g>
	<path d="M26.1,11.9c0,1.3,0,2.5,0,3.7c0.6,0,1.1,0,1.6,0c1.3,0,2.2,0.8,2.2,1.9c0,1.2-0.8,2-2.1,2.1c-0.1,0-0.1,0-0.2,0
		c0,0.2,0,0.4,0,0.7c0.2,1.8,0.4,3.6,0.6,5.4c0.3,2.4,0.5,4.7,0.7,7.1c0.1,1.2,0.2,2.3,0.4,3.5c0,0.4,0,0.8-0.5,0.8
		c-0.5,0-0.6-0.3-0.6-0.7c-0.2-2.3-0.5-4.6-0.8-7c-0.2,0-0.4,0-0.5,0c-3.1,0-6.1,0-9.2,0c-0.4,0-0.5,0.1-0.6,0.5
		c-0.2,2.1-0.4,4.2-0.7,6.3c0,0,0,0,0,0.1c-0.1,0.4-0.1,0.9-0.7,0.8c-0.6-0.1-0.5-0.6-0.4-1c0.4-3.5,0.7-6.9,1.1-10.4
		c0.2-1.9,0.4-3.8,0.7-5.7c0-0.1,0-0.2,0-0.3c-0.2,0-0.3,0-0.5,0c-0.9-0.1-1.6-0.6-1.8-1.4C14,14.6,13,10.9,12.1,7.3
		c-0.3-1,0.4-2.1,1.4-2.3c1.1-0.3,2.1,0.3,2.4,1.4c0.4,1.3,0.7,2.6,1,3.9c0.1,0.4,0.3,0.5,0.7,0.5c3,0,5.9,0,8.9,0
		c0.2,0,0.4-0.1,0.5,0c0.2,0.1,0.5,0.3,0.5,0.5c0.1,0.3-0.2,0.5-0.6,0.6C26.7,11.9,26.4,11.9,26.1,11.9z M26.5,19.6
		c-0.2,0-0.4,0-0.6,0c-0.5,0-1,0-1.4,0c-0.4,0-0.6-0.2-0.6-0.6c0-0.2,0.3-0.4,0.5-0.5c0.1-0.1,0.3,0,0.5,0c1,0,2,0,3.1,0
		c0.6,0,0.9-0.4,0.9-0.9c0-0.5-0.4-0.8-0.9-0.8c-0.2,0-0.3,0-0.5,0c-3.1,0-6.1,0-9.2,0c-0.5,0-0.8-0.2-0.9-0.7
		c-0.5-1.8-0.9-3.7-1.4-5.5c-0.3-1.2-0.6-2.5-0.9-3.7c-0.2-0.7-0.6-1-1.1-0.8c-0.5,0.1-0.7,0.6-0.6,1.3c0,0.1,0,0.1,0,0.2
		c0.8,3.3,1.7,6.6,2.5,10c0.2,0.9,0.4,1.1,1.4,1.1c1.1,0,2.3,0,3.4,0c0.3,0,0.6,0.2,0.6,0.5c0,0.4-0.2,0.6-0.6,0.6
		c-0.2,0-0.4,0-0.6,0c-0.5,0-1.1,0-1.6,0c-0.2,1.7-0.4,3.4-0.5,5c3.1,0,6.1,0,9.2,0C26.8,23,26.7,21.3,26.5,19.6z M17.4,28.2
		c3.3,0,6.6,0,9.9,0c-0.1-0.5-0.1-1-0.2-1.5c-0.1-0.8-0.1-0.8-0.9-0.9c-0.1,0-0.1,0-0.2,0c-2.5,0-5.1,0-7.6,0c-0.3,0-0.6,0-0.9,0
		C17.6,26.7,17.5,27.4,17.4,28.2z M24.9,12c-1.1,0-2.1,0-3.1,0c-0.2,1.2-0.5,2.4-0.7,3.7c1.3,0,2.5,0,3.8,0
		C24.9,14.4,24.9,13.2,24.9,12z M20,15.6c0.2-1.2,0.5-2.4,0.7-3.6c-1.1,0-2.2,0-3.2,0c0,0.1,0,0.1,0,0.1c0.2,0.7,0.4,1.5,0.6,2.2
		c0.4,1.4,0.4,1.4,1.8,1.3C19.9,15.6,19.9,15.6,20,15.6z"/>
</g>
</svg>
