<?xml version="1.0" encoding="utf-8"?>
<!-- Generator: Adobe Illustrator 24.0.1, SVG Export Plug-In . SVG Version: 6.00 Build 0)  -->
<svg version="1.1" id="Layer_1" xmlns="http://www.w3.org/2000/svg" xmlns:xlink="http://www.w3.org/1999/xlink" x="0px" y="0px"
	 viewBox="0 0 42 42" style="enable-background:new 0 0 42 42;" xml:space="preserve">
<style type="text/css">
	.st0{fill:#EEEFF0;}
	.st1{fill:#FFFFFF;}
</style>
<circle class="st0" cx="21" cy="21" r="21"/>
<g>
	<path d="M21,32.3c-4.5,0-9.1,0-13.6,0c-1.6,0-2.3-0.8-2.3-2.4C5,24.6,5,19.3,5,14c0-1.5,0.8-2.3,2.3-2.3c9.1,0,18.3,0,27.4,0
		c1.5,0,2.3,0.8,2.3,2.3c0,5.3,0,10.6,0,15.9c0,1.5-0.8,2.3-2.3,2.3C30.1,32.3,25.5,32.3,21,32.3z M21,31.3c4.6,0,9.1,0,13.7,0
		c0.9,0,1.4-0.4,1.4-1.3c0-2.1,0-4.2,0-6.3c0-3.2,0-6.5,0-9.7c0-1-0.4-1.4-1.4-1.4c-9.1,0-18.2,0-27.3,0c-1.1,0-1.4,0.4-1.4,1.4
		c0,5.3,0,10.5,0,15.8c0,1.1,0.4,1.5,1.5,1.5C11.9,31.3,16.5,31.3,21,31.3z"/>
	<path d="M12.7,14.4c1.2,0,2.4,0,3.6,0c0.9,0,1.3,0.5,1.3,1.3c0,2.4,0,4.9,0,7.3c0,0.9-0.4,1.4-1.4,1.4c-2.4,0-4.8,0-7.2,0
		c-0.9,0-1.4-0.5-1.4-1.4c0-2.4,0-4.8,0-7.2c0-0.9,0.5-1.4,1.4-1.4C10.3,14.4,11.5,14.4,12.7,14.4z M16.4,23.5c0.1,0,0.1,0,0.2,0
		c0.1-0.2,0.2-0.3,0.2-0.5c0-2.4,0-4.8,0-7.2c0-0.4-0.1-0.5-0.5-0.5c-2.4,0-4.8,0-7.2,0c-0.3,0-0.5,0.1-0.5,0.5c0,2.4,0,4.8,0,7.2
		c0,0.2,0.1,0.3,0.2,0.5c0,0,0.1,0,0.1,0c0.6-1.8,1.9-2.7,3.7-2.7C14.6,20.8,15.8,21.6,16.4,23.5z M15.4,23.5
		c-0.4-1.3-1.5-1.8-3-1.7c-1.1,0.1-2.2,0.9-2.3,1.7c0.9,0,1.7,0,2.6,0C13.6,23.5,14.4,23.5,15.4,23.5z"/>
	<path d="M19.5,21.3c0-0.3,0-0.6,0-0.9c4.7,0,9.4,0,14.1,0c0,0.3,0,0.6,0,0.9C29,21.3,24.3,21.3,19.5,21.3z"/>
	<path d="M33.7,23.2c0,0.3,0,0.6,0,0.9c-4.7,0-9.4,0-14.1,0c0-0.3,0-0.6,0-0.9C24.3,23.2,29,23.2,33.7,23.2z"/>
	<path d="M30,17.6c0,0.3,0,0.6,0,0.9c-3.5,0-6.9,0-10.4,0c0-0.3,0-0.6,0-0.9C23.1,17.6,26.5,17.6,30,17.6z"/>
	<path d="M25.3,29.8c0-0.3,0-0.6,0-0.9c2.2,0,4.4,0,6.7,0c0,0.3,0,0.5,0,0.9C29.7,29.8,27.5,29.8,25.3,29.8z"/>
	<path d="M16.6,28.9c0,0.3,0,0.6,0,0.9c-2.2,0-4.4,0-6.7,0c0-0.3,0-0.5,0-0.9C12.1,28.9,14.3,28.9,16.6,28.9z"/>
	<path d="M19.6,15.6c0-0.3,0-0.6,0-0.9c1.9,0,3.8,0,5.6,0c0,0.3,0,0.6,0,0.9C23.3,15.6,21.5,15.6,19.6,15.6z"/>
	<path d="M10.7,18.3c0-1.1,0.9-2,2-2c1.1,0,2,0.9,1.9,2c0,1.1-0.9,2-2,2C11.6,20.3,10.7,19.4,10.7,18.3z M12.7,17.3
		c-0.6,0-1.1,0.5-1.1,1c0,0.6,0.5,1.1,1.1,1.1c0.6,0,1.1-0.5,1.1-1.1C13.8,17.7,13.3,17.3,12.7,17.3z"/>
</g>
</svg>
