<?xml version="1.0" encoding="utf-8"?>
<!-- Generator: Adobe Illustrator 24.0.1, SVG Export Plug-In . SVG Version: 6.00 Build 0)  -->
<svg version="1.1" id="Layer_1" xmlns="http://www.w3.org/2000/svg" xmlns:xlink="http://www.w3.org/1999/xlink" x="0px" y="0px"
	 viewBox="0 0 42 42" style="enable-background:new 0 0 42 42;" xml:space="preserve">
<style type="text/css">
	.st0{fill:#EEEFF0;}
	.st1{fill:#FFFFFF;}
</style>
<circle class="st0" cx="21" cy="21" r="21"/>
<g>
	<path d="M24.9,21c0.1,0.1,0.1,0.2,0.1,0.2c0.8,1,1,2.2,1,3.5c0,2.2,0,4.3,0,6.5c0,0.4-0.2,0.6-0.6,0.6c-0.8,0-1.6,0-2.3,0
		c-0.4,0-0.6-0.2-0.6-0.6c0-0.4,0-0.9,0-1.3c-5,0-10,0-15,0c0,0.4,0,0.8,0,1.2c0,0.5-0.2,0.7-0.7,0.7c-0.7,0-1.5,0-2.2,0
		c-0.5,0-0.7-0.2-0.7-0.7c0-2.2,0-4.3,0.1-6.5c0-1.3,0.3-2.6,1.2-3.7c-0.4-0.1-0.7-0.2-1-0.3c-0.5-0.2-0.7-0.4-0.6-0.9
		C3.8,19.3,4.1,19,4.6,19c0.6,0,1.1,0,1.7,0c0.2,0,0.4-0.1,0.5-0.3c0.4-0.7,0.9-1.4,1.3-2.1c0.7-1.1,1.6-1.6,2.9-1.6
		c2.8,0,5.6,0,8.4,0c1.2,0,2.2,0.6,2.8,1.6c0.5,0.7,0.9,1.5,1.4,2.2c0.1,0.1,0.3,0.2,0.4,0.2c0.5,0,1.1,0,1.6,0
		c0.7,0,1.2,0.6,0.9,1.3c-0.1,0.2-0.3,0.4-0.5,0.5C25.7,20.8,25.3,20.9,24.9,21z M22.6,21c0.8,0,0.9-0.2,0.5-0.9c-0.6-1-1.2-2-1.9-3
		c-0.4-0.7-1.1-1.1-1.9-1.1c-2.8,0-5.6,0-8.4,0c-0.8,0-1.5,0.4-1.9,1.1c-0.6,1-1.3,2.1-1.9,3.1C7,20.4,6.9,20.7,7,20.8
		C7.1,20.9,7.4,21,7.6,21c1,0,1.9,0,2.9,0c1.5,0,3,0,4.4,0c1.1,0,2.2,0,3.3,0C19.7,21,21.1,21,22.6,21z M7.7,25.7
		C7.7,25.7,7.7,25.7,7.7,25.7c0.3,0,0.7,0,1,0c0.5,0,0.9-0.3,0.9-0.8c0.1-0.4-0.2-0.8-0.6-1c-0.6-0.2-1.3-0.5-1.9-0.7
		c-0.5-0.2-1-0.1-1.3,0.3c-0.4,0.4-0.4,0.8-0.2,1.3c0.2,0.5,0.6,0.8,1.1,0.8C7,25.7,7.4,25.7,7.7,25.7z M22.5,25.7
		c0.4,0,0.7,0,1.1,0c0.5,0,0.9-0.3,1.1-0.8c0.2-0.5,0.1-0.9-0.2-1.3c-0.4-0.4-0.8-0.5-1.3-0.3c-0.6,0.2-1.3,0.4-1.9,0.7
		c-0.4,0.2-0.7,0.6-0.6,1c0.1,0.4,0.4,0.7,0.9,0.7C21.8,25.7,22.2,25.7,22.5,25.7z M15.1,28.5c0.8,0,1.5,0,2.3,0
		c0.9,0,0.9-0.1,0.9-1c0-0.3-0.2-0.4-0.4-0.4c-1.8,0-3.6,0-5.4,0c-0.3,0-0.4,0.1-0.4,0.4c0,0.1,0,0.3,0,0.4c0,0.4,0.1,0.5,0.5,0.5
		C13.4,28.5,14.3,28.5,15.1,28.5z"/>
	<path d="M32.8,18.5c0.4-0.7,0.8-1.3,1.1-2c0.1-0.2,0.3-0.3,0.5-0.3c1,0.2,1.7,1.1,1.7,2.1c0,1.5,0,2.9,0,4.4c0,0.6-0.4,1.1-1,1.2
		C35,24.1,35,24.2,35,24.4c-0.1,2.1-0.1,4.2-0.2,6.3c0,0.8-0.3,1.1-1.1,1.1c-0.6,0-1.2,0-1.9,0c-0.6,0-1-0.3-1-1
		c-0.1-2.1-0.1-4.3-0.2-6.4c0-0.3,0-0.4-0.4-0.5c-0.5-0.1-0.9-0.6-0.9-1.1c0-0.4,0-0.8,0-1.2c0-1.1,0-2.1,0-3.2c0-1.1,0.7-2,1.8-2.2
		c0.2,0,0.3,0,0.4,0.2C32,17.1,32.4,17.8,32.8,18.5C32.8,18.5,32.8,18.5,32.8,18.5z"/>
	<path d="M34.8,12.2c0,0.5,0.1,1,0,1.5c-0.1,1-1.1,1.7-2.1,1.6c-1-0.1-1.8-0.9-1.9-1.9c0-0.4,0-0.8,0-1.3
		C32.1,12.2,33.5,12.2,34.8,12.2z"/>
	<path d="M34.8,10.2c0,0.5,0,1,0,1.5c-1.3,0-2.7,0-4,0c0-0.5,0-1,0-1.5C32.1,10.2,33.5,10.2,34.8,10.2z"/>
</g>
</svg>
