<?xml version="1.0" encoding="utf-8"?>
<!-- Generator: Adobe Illustrator 24.0.1, SVG Export Plug-In . SVG Version: 6.00 Build 0)  -->
<svg version="1.1" id="Layer_1" xmlns="http://www.w3.org/2000/svg" xmlns:xlink="http://www.w3.org/1999/xlink" x="0px" y="0px"
	 viewBox="0 0 42 42" style="enable-background:new 0 0 42 42;" xml:space="preserve">
<style type="text/css">
	.st0{fill:#EEEFF0;}
	.st1{fill:#FFFFFF;}
</style>
<circle class="st0" cx="21" cy="21" r="21"/>
<g>
	<path d="M28.3,20.9c-0.3,0-0.5,0-0.8,0c-1.1,0-2.2,0-3.3,0c-0.9,0.1-1.7,0.5-2.3,1.3c-0.3,0.4-0.5,0.8-0.8,1.2
		c-0.1,0.1-0.2,0.2-0.4,0.2c-0.3,0-0.5,0-0.8,0c-0.6,0-1.1,0.4-1.2,1c-0.2,0.6,0,1.1,0.5,1.5c0.1,0.1,0.1,0.2,0.1,0.3
		c-0.4,1-0.4,2.1-0.4,3.2c0,0.1,0,0.3,0,0.4c-0.1,0-0.3,0-0.4,0c-3,0-5.9,0-8.9,0C8,30,7,29,7,27.3C7,22,7,16.7,7,11.5
		C7,9.8,8,8.7,9.7,8.7c5.3,0,10.6,0,16,0c1.5,0,2.6,1.1,2.6,2.6c0,2.9,0,5.8,0,8.7C28.3,20.3,28.3,20.6,28.3,20.9z M15.5,21.1
		c0.2,0,0.4,0,0.6,0c0.2,0,0.3,0.1,0.3,0.2c0,0.3,0,0.6,0,0.8c0-0.3,0-0.5,0-0.8c0-0.2,0.1-0.3,0.3-0.3c0.5,0,1.1,0,1.6,0
		c0.3,0,0.6,0,0.9,0c0,0.2,0,0.4,0,0.7c0,0,0,0,0.1,0c0-0.2,0-0.5,0-0.7c0.1,0,0.1,0,0.2,0c0.1,0,0.1,0,0.2,0c0.7,0,1.4-0.3,2-0.7
		c1-0.7,1.5-1.7,1.6-2.9c0.1-1.1,0-2.2-0.7-3.1c-0.8-1.1-1.9-1.6-3.2-1.6c-2,0-4.1,0-6.1-0.1c-0.3,0-0.4,0.1-0.4,0.4
		c0,4.3,0,8.6,0,12.9c0,0.1,0,0.2,0,0.4c0.9,0,1.8,0,2.7,0c0.1,0,0.1-0.1,0.1-0.2c0-0.3,0-0.7,0-1C15.5,23.7,15.5,22.4,15.5,21.1z
		 M21.2,21.1C21.1,21.1,21.1,21.1,21.2,21.1c0,0.3,0,0.7,0,1c0,0.4,0,0.4,0.3,0.3c-0.2,0-0.3-0.1-0.2-0.4
		C21.2,21.7,21.2,21.4,21.2,21.1z"/>
	<path d="M20.5,25.9c-0.3-0.1-0.5-0.2-0.7-0.2c-0.3-0.1-0.5-0.3-0.4-0.6c0-0.3,0.3-0.6,0.6-0.6c0.3,0,0.7,0,1,0
		c0.3,0,0.4-0.1,0.5-0.3c0.2-0.4,0.5-0.9,0.8-1.3c0.5-0.9,1.3-1.2,2.3-1.2c0.7,0,1.5,0,2.2,0c1.1,0,2.3,0,3.4,0c0.7,0,1.3,0.4,1.7,1
		c0.3,0.5,0.6,1,1,1.5c0.1,0.1,0.2,0.2,0.4,0.2c0.4,0,0.7,0,1.1,0c0.3,0,0.6,0.2,0.6,0.6c0,0.3-0.1,0.5-0.5,0.6
		c-0.2,0.1-0.4,0.1-0.6,0.2c0,0.1,0,0.1,0.1,0.2c0.6,0.8,0.7,1.7,0.7,2.6c0,1.4,0,2.8,0,4.2c0,0.3-0.1,0.4-0.4,0.5c-0.5,0-1,0-1.5,0
		c-0.3,0-0.4-0.1-0.5-0.4c0-0.3,0-0.6,0-0.9c-3.4,0-6.8,0-10.3,0c0,0.3,0,0.5,0,0.8c0,0.4-0.1,0.5-0.5,0.5c-0.5,0-1,0-1.5,0
		c-0.3,0-0.5-0.1-0.5-0.4c0-1.4,0-2.8,0-4.2C19.7,27.7,19.8,26.7,20.5,25.9z M27.2,25.9c1.7,0,3.5,0,5.2,0c0.1,0,0.3-0.1,0.4-0.2
		c0.1-0.1,0-0.3-0.1-0.4c-0.4-0.7-0.9-1.4-1.3-2.1c-0.3-0.5-0.8-0.8-1.4-0.8c-1.9,0-3.8,0-5.7,0c-0.5,0-1,0.3-1.3,0.7
		c-0.4,0.7-0.9,1.4-1.3,2.1c-0.1,0.1-0.2,0.4-0.1,0.5c0.1,0.1,0.3,0.2,0.4,0.2C23.8,25.9,25.5,25.9,27.2,25.9z M22.1,29.1
		C22.1,29.1,22.1,29.1,22.1,29.1c0.2,0,0.5,0,0.7,0c0.3,0,0.6-0.2,0.6-0.5c0.1-0.3-0.1-0.6-0.4-0.7c-0.5-0.2-0.9-0.3-1.4-0.5
		c-0.3-0.1-0.6,0-0.9,0.3c-0.2,0.3-0.3,0.6-0.1,0.9c0.1,0.3,0.4,0.5,0.7,0.5C21.7,29.1,21.9,29.1,22.1,29.1z M32.3,29.1
		C32.3,29.1,32.3,29.1,32.3,29.1c0.3,0,0.5,0,0.8,0c0.5,0,0.9-0.5,0.8-1c-0.1-0.5-0.6-0.9-1.1-0.7c-0.5,0.1-1,0.3-1.4,0.5
		c-0.3,0.1-0.4,0.4-0.4,0.7c0.1,0.3,0.3,0.5,0.6,0.5C31.8,29.1,32.1,29.1,32.3,29.1z M27.2,31c0.6,0,1.2,0,1.8,0
		c0.3,0,0.4-0.1,0.4-0.5c0-0.4,0-0.5-0.4-0.5c-1.2,0-2.3,0-3.5,0c-0.3,0-0.4,0.1-0.4,0.5c0,0.4,0.1,0.5,0.4,0.5
		C26.1,31,26.6,31,27.2,31z"/>
	<path class="st1" d="M21.2,21.1c0,0.3,0,0.6,0,1c0,0.3,0.1,0.4,0.2,0.4c-0.2,0-0.3,0-0.3-0.3C21.1,21.8,21.1,21.4,21.2,21.1
		C21.1,21.1,21.1,21.1,21.2,21.1z"/>
	<path d="M15.5,18.8c0-1.3,0-2.5,0-3.7c0-0.1,0.1-0.2,0.2-0.2c1,0,2,0,3,0.1c0.9,0.1,1.5,0.8,1.5,1.8c0,0.9-0.6,1.7-1.5,1.8
		C17.7,18.7,16.7,18.7,15.5,18.8z"/>
	<polygon points="16.2,21.1 16.7,21.1 19.5,21 21.5,21 21.5,22.6 17.4,23 15.9,22.3 	"/>
</g>
</svg>
