<?xml version="1.0" encoding="utf-8"?>
<!-- Generator: Adobe Illustrator 24.0.1, SVG Export Plug-In . SVG Version: 6.00 Build 0)  -->
<svg version="1.1" id="Layer_1" xmlns="http://www.w3.org/2000/svg" xmlns:xlink="http://www.w3.org/1999/xlink" x="0px" y="0px"
	 viewBox="0 0 42 42" style="enable-background:new 0 0 42 42;" xml:space="preserve">
<style type="text/css">
	.st0{fill:#EEEFF0;}
	.st1{fill:#FFFFFF;}
</style>
<circle class="st0" cx="21" cy="21" r="21"/>
<g>
	<path d="M21.1,9.9c5.7,0.1,10.3,4.7,10.2,10.5c-0.1,5.8-4.8,10.3-10.6,10.2c-5.6-0.1-10.2-4.8-10.1-10.5
		C10.6,14.3,15.3,9.8,21.1,9.9z M20.9,30.1c5.4,0,9.8-4.4,9.8-9.8c0-5.4-4.4-9.9-9.8-9.9c-5.5,0-9.9,4.4-9.9,9.8
		C11.1,25.7,15.5,30.1,20.9,30.1z"/>
	<path d="M7.7,17.6c0-1.5,0-3,0-4.5c0-0.3,0-0.6,0-0.8c0-0.2,0.2-0.3,0.3-0.4c0.1,0.1,0.2,0.3,0.2,0.4c0,1.1,0,2.1,0,3.2
		c0,0.7,0,1.5,0,2.3c0.9-0.2,1.4-0.8,1.5-1.5c0.2-1.1,0.3-2.2,0.4-3.4c0-0.2,0.2-0.4,0.2-0.6c0.1,0.2,0.2,0.4,0.2,0.6
		c-0.1,1.1-0.1,2.2-0.3,3.3c-0.2,0.9-0.7,1.7-1.6,2.1c0.6,1,0.6,1.4,0.1,2.1c0.1,0.6,0.3,1,0.3,1.5c0,3,0,6,0,9.1
		c0,0.8-0.4,1.2-1.2,1.3c-0.9,0-1.2-0.4-1.2-1.3c0-2.7,0-5.4,0-8.2c0-0.4,0-0.7,0-1.1c0-0.4,0.2-0.8,0.3-1.3
		c-0.5-0.8-0.5-1.3,0.2-2.2c-1.2-0.5-1.6-1.6-1.7-2.7c-0.1-0.8-0.1-1.7-0.1-2.5c0-0.2,0.2-0.4,0.3-0.6c0.1,0.2,0.2,0.4,0.2,0.6
		c0.1,0.9,0.1,1.8,0.2,2.7C6.3,16.8,6.9,17.4,7.7,17.6z M7.3,26.3c0,1.5,0,3,0,4.5c0,0.5,0.2,0.9,0.8,0.9c0.6,0,0.7-0.4,0.7-0.9
		c0-3,0-6.1,0-9.1c0-0.5-0.1-0.9-0.7-0.9c-0.6,0-0.8,0.3-0.8,0.9C7.3,23.2,7.3,24.7,7.3,26.3z M8.9,19.5c0-0.1,0-0.2,0-0.3
		C8.6,19,8.3,18.7,8,18.7c-0.3,0-0.6,0.4-0.7,0.7c-0.1,0.5,0.3,0.8,0.8,0.7C8.4,20.1,8.6,19.7,8.9,19.5z"/>
	<path d="M33.1,20.4c-0.6-0.6-0.5-1.3-0.1-2c-2-1.4-2.2-3.3-1.3-5.2c0.4-0.9,1.1-1.4,2.1-1.4c1,0,1.7,0.6,2.2,1.4
		c1,1.8,0.4,4.1-1,4.9c-0.1,0-0.2,0.1-0.2,0.1c0.7,1,0.7,1.3,0.2,2c0.1,0.6,0.3,1.1,0.3,1.6c0,3,0,6,0,9c0,0.9-0.4,1.3-1.3,1.3
		c-0.6,0-1.1-0.4-1.1-1c0-3.3,0-6.5,0-9.8C32.8,21,33,20.7,33.1,20.4z M36,15c-0.2-0.5-0.3-1.1-0.6-1.7c-0.8-1.4-2.4-1.3-3.2,0
		c-0.7,1.1-0.6,2.4-0.1,3.5c0.3,0.6,0.9,1.2,1.7,1.1c0.8-0.1,1.5-0.5,1.8-1.3C35.8,16.1,35.9,15.6,36,15z M34.7,26.3
		c0-1.5,0-3.1,0-4.6c0-0.5-0.1-0.9-0.7-0.9c-0.6,0-0.7,0.4-0.7,0.9c0,3,0,6.1,0,9.1c0,0.5,0.1,0.9,0.8,0.9c0.6,0,0.7-0.4,0.7-0.9
		C34.7,29.3,34.7,27.8,34.7,26.3z M34.2,18.6c-0.1,0-0.2,0-0.3,0c-0.2,0.3-0.6,0.5-0.6,0.8c-0.1,0.5,0.3,0.9,0.7,0.8
		c0.3-0.1,0.7-0.4,0.7-0.7C34.8,19.2,34.4,18.8,34.2,18.6z"/>
	<path d="M20.9,27.6c-1.3,0-2.5-0.3-3.5-0.9c-0.6-0.4-1.1-0.4-1.7,0c-0.6,0.4-0.8,0.2-1.1-0.4c-0.7-1.8-1.5-3.5-2.3-5.3
		c-0.2-0.5-0.2-0.9,0.4-1c0.6-0.2,0.9-0.6,1-1.2c0.7-4.7,6.4-7.8,11-5c0.7,0.4,1.3,0.5,2,0.1c0.4-0.2,0.7-0.3,0.9,0.3
		c0.8,1.9,1.7,3.8,2.5,5.7c0.1,0.2-0.1,0.6-0.3,0.6c-1.2,0.3-1.5,1.1-1.9,2.2C27,25.7,24.1,27.6,20.9,27.6z M12.7,20.5
		c0.9,1.9,1.7,3.8,2.5,5.7c4.8-2.1,9.6-4.2,14.3-6.3c-0.8-1.9-1.7-3.8-2.5-5.7C22.3,16.4,17.5,18.5,12.7,20.5z M14.1,19.4
		c3.6-1.6,7.1-3.1,10.7-4.7c-1.3-1.4-4.2-1.8-6.4-0.9C15.9,14.8,14.4,16.7,14.1,19.4z M27.7,21.4c-3.5,1.5-6.9,3-10.4,4.6
		C21.1,28.7,27.1,26,27.7,21.4z"/>
	<path d="M18,23c-0.3-0.7-0.6-1.3-0.9-2.1c0.6-0.1,1-0.2,1.5-0.2c0.1,0,0.2,0.6,0.2,0.9c0.2,0.2,0.5,0.5,0.7,0.7
		c0,0.1-0.1,0.2-0.1,0.2c-0.4-0.2-0.8-0.4-1.3-0.7c0.1,0.5,0.1,0.8,0.2,1.1C18.2,23,18.1,23,18,23z"/>
	<path d="M22.3,21.1c-0.1-0.7-0.1-1.3-0.2-2c0-0.1,0.1-0.4,0.2-0.4c0.1,0,0.4,0,0.5,0.1c0.5,0.5,0.9,1,1.5,1.6
		c-0.9-0.2-1.8-0.6-1.8,0.9C22.5,21.2,22.4,21.2,22.3,21.1z"/>
	<path d="M15.3,21.8c0.6-0.2,1.1-0.7,1.6-0.1c0.4,0.6-0.1,1-0.6,1.3c0.1,0.2,0.1,0.3,0.2,0.4c0,0.1,0,0.2-0.1,0.4
		c-0.1-0.1-0.3-0.1-0.3-0.2C15.8,23,15.6,22.4,15.3,21.8z"/>
	<path d="M19.8,19.8c0.7,0.1,0.8,0.9,1.5,1.2c0-0.4-0.1-0.7-0.1-1c0-0.3,0-0.6,0-0.9c0.1,0,0.2,0,0.3,0c0.1,0.7,0.1,1.5,0.1,2.2
		c0,0.1-0.5,0.2-0.6,0.2c-0.5-0.5-0.9-1-1.4-1.5C19.7,19.9,19.8,19.8,19.8,19.8z"/>
	<path d="M25,17.5c0.5-0.2,0.9-0.4,1.2-0.5c0,0.1,0.1,0.1,0.1,0.2c-0.2,0.2-0.5,0.3-0.7,0.5c0,0.1,0,0.1,0,0.2
		c0.3,0,0.6,0.1,0.9,0.1c0.1,0.4-0.9,0.5-0.3,1c0.2-0.1,0.5-0.2,0.8-0.2c0,0.1,0.1,0.1,0.1,0.2c-0.4,0.2-0.7,0.4-1.2,0.6
		C25.6,18.9,25.3,18.3,25,17.5z"/>
	<path d="M24.9,17.8c-1,0.8,0.2,1.5,0,2.4c-0.8-0.5-0.4-1.8-1.7-1.6c0-0.1,0-0.1,0-0.2c0.5-0.2,1-0.4,1.5-0.7
		C24.8,17.7,24.8,17.7,24.9,17.8z"/>
	<path d="M19.9,22.3c-0.3-0.8-0.6-1.5-0.9-2.2C19.6,20.2,20.3,21.7,19.9,22.3z"/>
</g>
</svg>
