<?xml version="1.0" encoding="utf-8"?>
<!-- Generator: Adobe Illustrator 24.0.1, SVG Export Plug-In . SVG Version: 6.00 Build 0)  -->
<svg version="1.1" id="Layer_1" xmlns="http://www.w3.org/2000/svg" xmlns:xlink="http://www.w3.org/1999/xlink" x="0px" y="0px"
	 viewBox="0 0 42 42" style="enable-background:new 0 0 42 42;" xml:space="preserve">
<style type="text/css">
	.st0{fill:#EEEFF0;}
	.st1{fill:#FFFFFF;}
</style>
<ellipse class="st0" cx="20.9" cy="21" rx="20.7" ry="21"/>
<g>
	<path d="M26.8,27.5c1,1.3,1.9,2.5,2.8,3.6c-1.1,0.2-1.9,0.1-2.5-0.9c-0.5-0.8-1.1-1.5-1.7-2.2c-0.2-0.2-0.6-0.4-0.9-0.4
		c-2.5,0-5.1,0-7.6,0c-0.3,0-0.7,0.2-0.9,0.5c-0.6,0.7-1.2,1.4-1.7,2.2c-0.6,1-1.4,1.1-2.4,0.9c0.9-1.2,1.8-2.3,2.8-3.6
		c-1,0-1.8,0-2.5,0c-0.2,0-0.4,0.3-0.5,0.5c-0.1,0.2-0.1,0.5-0.1,0.7c0,0.5-0.2,0.8-0.8,0.8c-0.6,0-1.1,0-1.2-0.8
		c0-0.2-0.1-0.5-0.1-0.7c0-0.3-0.1-0.6-0.5-0.6c-0.5,0-0.6-0.3-0.6-0.7c0-1.5,0-3-0.1-4.4c-0.1-1.1-0.4-2.3-0.8-3.4
		c-0.3-1.1-0.3-1.8,0.4-2.3c0.8-0.6,2.1-0.4,2.8,0.4c0.5,0.5,0.8,1.1,1.3,1.8c0-1.4,0-2.6,0-3.8c0-1.5,0.2-1.8,1.8-2
		c-0.6-0.7-1.1-1.4-1.6-2.2c1-0.2,1.9-0.2,2.4,0.9c0.6,1.1,1.4,1.4,2.7,1.4c2.7-0.1,5.4,0,8.1-0.1c0.3,0,0.7-0.2,0.9-0.5
		c0.2-0.2,0.4-0.5,0.6-0.7c0.5-1,1.3-1.3,2.5-1c-0.5,0.7-1,1.4-1.6,2.1c0.2,0,0.4,0.1,0.5,0.1c1.3,0,1.6,0.4,1.7,1.7
		c0,1.3,0,2.6,0.2,3.9c0.1-0.2,0.2-0.5,0.3-0.7c0.5-0.9,1.2-1.5,2.2-1.7c1.3-0.3,2.4,0.8,2,2.1c-1,2.7-1.2,5.5-1,8.3
		c0,0.4-0.1,0.7-0.6,0.8c-0.2,0-0.3,0.3-0.5,0.5c-0.1,0.1-0.1,0.3-0.1,0.5c-0.1,1-0.5,1.3-1.5,1c-0.2,0-0.4-0.3-0.4-0.5
		c-0.1-0.2-0.1-0.5-0.1-0.8c-0.1-0.5-0.3-0.8-0.9-0.8C28.6,27.5,27.8,27.5,26.8,27.5z M29.1,17.7c0-1,0-2,0-3c0-0.3-0.1-0.6-0.3-0.8
		c-0.4-0.4-1.8-0.2-2.1,0.3c-1.6,2-3.2,4-4.7,6.1c-0.2,0.2-0.3,0.6-0.3,0.7c0.2,0.2,0.5,0.5,0.8,0.5c1.9,0,3.9,0,5.8,0
		c0.6,0,0.8-0.2,0.8-0.8C29.1,19.7,29.1,18.7,29.1,17.7z M19.8,20.8c-1.8-2.2-3.5-4.5-5.3-6.7c-0.2-0.3-1-0.2-1.4-0.1
		c-0.2,0-0.4,0.5-0.4,0.8c0,2,0,3.9,0,5.9c0,0.7,0.3,0.9,0.9,0.9c1.7,0,3.4,0,5.2,0C19.2,21.5,19.6,21.3,19.8,20.8z M29.8,24.4
		c0,0.4,0,0.7,0,1c0,1.7,0,1.5,1.4,1.5c1.8,0,1.7,0.3,1.6-1.6c-0.1-2.3,0.1-4.6,1-6.8c0.3-0.7-0.3-1.4-1.1-1.3c-1,0.1-1.6,0.7-2,1.6
		C30,20.5,29.6,22.4,29.8,24.4z M9,24.1c0,0.9,0,1.5,0,2.1c0,0.5,0.2,0.7,0.7,0.7c0.6,0,1.1,0,1.7,0c0.5,0,0.6-0.2,0.6-0.6
		c0-0.6,0-1.2,0-1.8c0.2-2.1-0.2-4.1-1.1-6c-0.3-0.8-0.9-1.3-1.7-1.4c-1-0.2-1.6,0.5-1.2,1.4C8.8,20.4,9.1,22.3,9,24.1z M16.9,26.8
		c2.6,0,5.1,0,7.7,0c-0.4-0.6-0.8-1.1-1.2-1.6c-0.2-0.2-0.6-0.4-0.9-0.4c-1.2,0-2.4,0-3.5,0c-0.2,0-0.5,0-0.6,0.2
		C17.8,25.5,17.4,26.1,16.9,26.8z M16.1,13.8c1.5,1.9,2.9,3.8,4.3,5.6c0.1-1.7,0.2-3.4,0.1-5c0-0.2-0.4-0.5-0.6-0.5
		C18.7,13.8,17.5,13.8,16.1,13.8z M25.4,13.8c-1.2,0-2.3,0-3.3,0c-0.7,0-1,0.4-0.9,1c0,1.2,0,2.4,0,3.7c0,0.2,0,0.4,0.1,0.7
		C22.7,17.3,24,15.6,25.4,13.8z M22.7,22.2c0.4,0.6,0.8,1,1.1,1.4c0.3,0.4,0.6,0.6,1.1,0.5c1,0,1.9,0,2.9,0c1.7,0,1.3,0.1,1.4-1.4
		c0-0.2-0.3-0.5-0.4-0.5C26.7,22.2,24.8,22.2,22.7,22.2z M12.8,24.1c1.1,0,2.2,0,3.3,0c0.6,0,1.2,0.2,1.6-0.5
		c0.3-0.5,0.7-0.9,1.1-1.5c-1.6,0-3.1,0-4.5,0c-1.9,0-1.7-0.4-1.6,1.8C12.7,24,12.7,24,12.8,24.1z M24.7,24.8c0.6,0.7,1,1.3,1.5,1.9
		c0.1,0.1,0.2,0.1,0.4,0.1c0.6,0,1.3,0,1.9,0c0.4,0,0.6-0.2,0.7-0.7c0-0.3,0.1-0.6,0-0.8c-0.1-0.2-0.3-0.5-0.5-0.5
		C27.4,24.7,26.1,24.8,24.7,24.8z M16.8,24.8c-1.3,0-2.4,0-3.6,0c-0.2,0-0.5,0.3-0.5,0.5c-0.3,1.3,0,1.6,1.2,1.6c0.3,0,0.6,0,0.8,0
		c0.2,0,0.4,0,0.4-0.1C15.7,26.1,16.2,25.5,16.8,24.8z M19,24c0,0.1,0.1,0.2,0.1,0.3c0.5-0.2,1.2-0.2,1.4-0.5c0.2-0.3,0.1-1,0.1-1.5
		c-0.1,0-0.2,0-0.3,0C19.9,22.8,19.4,23.4,19,24z M22.5,24.1c-0.4-0.6-0.8-1-1.2-1.5C21,24,21.1,24.2,22.5,24.1z M30.8,27.7
		c0.1,0.3,0.1,0.5,0.1,0.6c0.1,0.5,0.6,0.7,0.7,0.2c0.1-0.3,0-0.7,0-1C31.3,27.6,31.1,27.6,30.8,27.7z M9.9,27.8
		c0.2,0.4,0.4,0.7,0.5,1c0.2-0.2,0.4-0.4,0.5-0.7c0.1-0.3,0.1-0.7-0.4-0.6C10.3,27.5,10.2,27.7,9.9,27.8z"/>
</g>
</svg>
