<svg id="Layer_1" data-name="Layer 1" xmlns="http://www.w3.org/2000/svg" viewBox="0 0 22 22"><defs><style>.cls-1{fill:#eeeff0;}</style></defs><circle class="cls-1" cx="11" cy="11" r="11"/><path d="M4.7,13.94H17.3v1.68a.42.42,0,0,1-.42.42h-.42a.42.42,0,0,1-.42-.42V15.2H6v.42a.42.42,0,0,1-.42.42H5.12a.42.42,0,0,1-.42-.42V13.94ZM15.83,11H6.17A1.47,1.47,0,0,0,4.7,12.47v1H17.3v-1A1.47,1.47,0,0,0,15.83,11ZM8.69,9.32c1.19,0,1.89.42,1.89,1.26h.84c0-.84.69-1.26,1.89-1.26s1.89.42,1.89,1.26h1.26V8.06a.85.85,0,0,0-.84-.84h-.84C14.2,6.48,12.55,6,11,6s-3.2.52-3.78,1.26H6.38a.85.85,0,0,0-.84.84v2.52H6.8C6.8,9.74,7.5,9.32,8.69,9.32Z"/></svg>