<?xml version="1.0" encoding="utf-8"?>
<!-- Generator: Adobe Illustrator 24.0.1, SVG Export Plug-In . SVG Version: 6.00 Build 0)  -->
<svg version="1.1" id="Layer_1" xmlns="http://www.w3.org/2000/svg" xmlns:xlink="http://www.w3.org/1999/xlink" x="0px" y="0px"
	 viewBox="0 0 42 42" style="enable-background:new 0 0 42 42;" xml:space="preserve">
<style type="text/css">
	.st0{fill:#EEEFF0;}
	.st1{fill:#FFFFFF;}
</style>
<circle class="st0" cx="21" cy="21" r="21"/>
<g>
	<path d="M32.2,32.2c0,0.8,0,1.6,0,2.3c0,0.4-0.1,0.7-0.5,0.7c-0.4,0-0.5-0.3-0.5-0.7c0-0.7,0-1.5,0-2.3c-0.2,0-0.3-0.1-0.5-0.1
		c0-2,0-3.9,0-5.9c0-0.2,0.1-0.4,0-0.5c-0.1-0.2-0.3-0.5-0.5-0.5c-0.2,0-0.4,0.3-0.5,0.4c-0.1,0.1,0,0.3,0,0.4c0,1.8,0,3.6,0,5.3
		c0,0.2,0,0.4,0,0.6c-1.6-0.8-3-0.1-4.5,0.6c0-0.6,0-1,0-1.4c0-1.2,0-2.4,0-3.6c0-0.4-0.1-0.7-0.5-0.7c-0.4,0-0.5,0.3-0.5,0.7
		c0,1.5,0,3,0,4.5c0,0.2,0,0.4,0,0.6c-1.3,0.1-2.3-0.8-3.5-1c0-0.2,0-0.4,0-0.5c0-2,0-4.1,0-6.1c0-0.2,0-0.3,0-0.4
		c-0.1-0.2-0.3-0.4-0.5-0.4c-0.2,0-0.4,0.2-0.5,0.4c-0.1,0.1,0,0.3,0,0.5c0,2.2,0,4.4,0,6.6c-1,0.4-2,0.7-3,1.1c0-1,0-1.9,0-2.8
		c0-0.5,0-1,0-1.5c0-0.7-0.2-0.9-0.5-0.9c-0.6,0.1-0.5,0.5-0.5,0.9c0,1.1,0,2.3,0,3.4c0,0.2,0,0.5,0,0.8c-0.4-0.1-0.8-0.2-1.2-0.3
		c-1.9-0.8-1.9-0.8-3.9-0.4c0-1.1,0-2.1,0-3.1c0-0.9,0-1.9,0-2.8c0-0.4-0.1-0.8-0.5-0.8c-0.5,0-0.5,0.4-0.5,0.8c0,1.9,0,3.7,0,5.6
		c0,0.2,0,0.4,0,0.6c-0.2,0-0.3,0.1-0.5,0.1c0,0.8,0,1.5,0,2.3c0,0.4-0.1,0.7-0.5,0.7c-0.4,0-0.5-0.3-0.5-0.7c0-0.8,0-1.5,0-2.4
		c-0.5,0-0.9,0-1.3,0c-0.6,0-0.7-0.1-0.7-0.8c0-2.8,0-5.6,0-8.4c0-1.4,0-2.9,0-4.3c0-0.6,0.1-0.7,0.7-0.7c9,0,17.9,0,26.9,0
		c0.6,0,0.8,0.2,0.8,0.9c0,3.1,0,6.3,0,9.4c0,1,0,2,0,3c0,0.7-0.1,0.8-0.8,0.8C33,32.2,32.6,32.2,32.2,32.2z"/>
	<path d="M30.1,12.8c-3.8,0-7.4,0-11.1,0c0.1-1.3,0.7-2.3,1.7-3.1c0.9-0.8,2.1-1.2,3.3-1.4c0-0.3,0-0.6,0-1c0-0.3,0.1-0.5,0.5-0.6
		C24.9,6.8,25,7,25,7.4c0,0.3,0,0.6,0,0.9C27.7,8.8,29.6,10,30.1,12.8z"/>
	<path d="M30.1,13.9c0,1,0,1.9,0,2.9c-3.7,0-7.4,0-11.1,0c0-1,0-1.9,0-2.9C22.7,13.9,26.4,13.9,30.1,13.9z M25.6,14.9
		c-0.6,0-1.2,0-1.9,0c-0.4,0-0.7,0.1-0.7,0.5c0,0.4,0.3,0.5,0.6,0.5c1.3,0,2.5,0,3.8,0c0.4,0,0.7-0.1,0.6-0.5c0-0.4-0.3-0.5-0.7-0.5
		C26.8,14.9,26.2,14.9,25.6,14.9z"/>
	<path d="M12.4,10.8c-0.9,0-1.9,0-2.8,0c-0.4,0-0.7-0.1-0.7-0.5c0-0.4,0.3-0.5,0.7-0.5c1.9,0,3.8,0,5.7,0c0.4,0,0.7,0.1,0.7,0.5
		c0,0.4-0.3,0.5-0.7,0.5C14.3,10.8,13.3,10.8,12.4,10.8z"/>
	<path d="M12.4,11.9c0.9,0,1.9,0,2.8,0c0.4,0,0.7,0.1,0.7,0.5c0,0.4-0.3,0.5-0.7,0.5c-1.9,0-3.8,0-5.7,0c-0.4,0-0.7-0.1-0.7-0.5
		c0-0.4,0.3-0.5,0.7-0.5C10.5,11.9,11.4,11.9,12.4,11.9z"/>
	<path d="M12.4,14.9c-1,0-1.9,0-2.9,0c-0.4,0-0.7-0.1-0.7-0.5c0-0.4,0.3-0.5,0.6-0.5c1.9,0,3.8,0,5.7,0c0.4,0,0.7,0.1,0.7,0.5
		c0,0.4-0.3,0.5-0.6,0.5C14.3,14.9,13.3,14.9,12.4,14.9z"/>
	<path d="M12.4,16.9c-0.9,0-1.9,0-2.8,0c-0.4,0-0.7,0-0.7-0.5c0-0.5,0.3-0.5,0.7-0.5c1.9,0,3.8,0,5.6,0c0.4,0,0.7,0.1,0.7,0.5
		c0,0.5-0.3,0.5-0.7,0.5C14.2,16.9,13.3,16.9,12.4,16.9z"/>
</g>
</svg>
