<?xml version="1.0" encoding="utf-8"?>
<!-- Generator: Adobe Illustrator 24.0.1, SVG Export Plug-In . SVG Version: 6.00 Build 0)  -->
<svg version="1.1" id="Layer_1" xmlns="http://www.w3.org/2000/svg" xmlns:xlink="http://www.w3.org/1999/xlink" x="0px" y="0px"
	 viewBox="0 0 42 42" style="enable-background:new 0 0 42 42;" xml:space="preserve">
<style type="text/css">
	.st0{fill:#EEEFF0;}
	.st1{fill:#FFFFFF;}
</style>
<circle class="st0" cx="21" cy="21" r="21"/>
<g>
	<path d="M13.9,20.2c0-0.9,0-1.6,0-2.4c0-0.7,0-1.4,0-2.1c0-0.2,0.1-0.4,0.2-0.6c0.8-0.9,1.7-1.7,2.5-2.6c0.1-0.1,0.2-0.4,0.2-0.6
		c0-0.8,0-1.7,0.1-2.5c0-0.4,0.2-0.8,0.3-1.1c0.4-0.9,0.6-1.8,0.6-2.7c0-0.3,0-0.5,0.4-0.5c0.3,0,0.3,0.3,0.3,0.5
		c0,1-0.2,1.9-0.5,2.8c-0.2,0.6-0.4,1.3-0.4,2c-0.1,1.6,0,3.3,0,4.9c0,0.2,0.1,0.5,0.3,0.7c0.3,0.3,0.8,0,0.8-0.5c0-0.4,0-0.9,0-1.3
		c0-0.2,0.1-0.4,0.3-0.4c0.3,0,0.3,0.2,0.3,0.4c0,0.5,0,0.9,0,1.4c0,0.6,0.2,0.9,0.6,0.9c0.4,0,0.6-0.3,0.6-0.9c0-0.5,0-1,0-1.5
		c0-0.2,0.1-0.5,0.4-0.4c0.1,0,0.3,0.3,0.3,0.4c0,0.5,0,1.1,0,1.6c0,0.4,0.2,0.7,0.6,0.7c0.4,0,0.6-0.3,0.6-0.7c0-0.5,0-1,0-1.5
		c0-0.2,0-0.5,0.3-0.5c0.4,0,0.4,0.3,0.4,0.6c0,0.5,0,1,0,1.5c0,0.4,0.2,0.7,0.6,0.7c0.3,0,0.6-0.3,0.6-0.7c0-1.5,0-2.9,0-4.4
		c0-0.1,0-0.3,0-0.4c0.1-0.1,0.2-0.3,0.4-0.3c0.1,0,0.2,0.2,0.3,0.3c0,0,0,0.1,0,0.2c-0.2,1.1,0.5,1.6,1.3,2.3
		c-0.1-1.5,0.3-3-0.5-4.3c-0.2-0.3-0.4-0.6-0.7-0.9c-0.8-0.8-0.9-1.8-0.9-2.9c0-0.1,0.2-0.3,0.3-0.3c0.1,0,0.3,0.1,0.3,0.2
		c0.1,0.2,0.1,0.4,0.1,0.7c0,0.8,0.3,1.4,0.8,2c0.8,0.9,1.2,2,1.2,3.2c0,0.9,0,1.8,0,2.7c0,0.3,0.1,0.6,0.3,0.7
		c0.6,0.5,0.8,1.1,0.8,1.8c-0.1,1.2,0,2.5,0,3.8c0.2,0,0.3,0,0.5,0c0.9,0,1.9,0,2.8,0c0.4,0,0.6,0.1,0.6,0.5c0,1.4,0,2.8,0,4.1
		c0,3.8,0,7.6,0,11.3c0,0.7,0,0.7-0.7,0.7c-6.7,0-13.5,0-20.2,0c-0.7,0-0.7,0-0.7-0.7c0-3.9,0-7.7,0-11.6c0-1.3,0-2.6,0-3.8
		c0-0.4,0.1-0.6,0.5-0.6C11.8,20.2,12.8,20.2,13.9,20.2z M10.9,36.2c6.8,0,13.5,0,20.2,0c0-5.1,0-10.2,0-15.3c-6.7,0-13.5,0-20.2,0
		C10.9,26,10.9,31.1,10.9,36.2z M17.6,20.2c2.3,0,4.5,0,6.7,0c0-1.1,0-2.1,0-3c-0.5-0.1-1-0.2-1.6-0.3c-0.6,0.4-0.9,0.4-1.8-0.1
		c-0.8,0.5-1.2,0.5-1.9-0.2c-0.5,0-0.9,0.1-1.4,0.1C17.6,17.8,17.6,19,17.6,20.2z M16.9,13.4c-0.7,0.6-1.4,1.3-2,1.9
		c-0.1,0.1-0.2,0.4-0.2,0.6c0,1.3,0,2.5,0,3.8c0,0.2,0,0.3,0,0.5c0.8,0,1.5,0,2.3,0C16.9,17.9,16.9,15.6,16.9,13.4z M27.2,20.2
		c0-0.1,0-0.1,0-0.1c0-0.9-0.1-1.8,0-2.7c0.1-1.2-0.2-2.2-1.2-3c-0.4-0.3-0.7-0.7-1.1-1.1c0,2.3,0,4.6,0,6.9
		C25.8,20.2,26.5,20.2,27.2,20.2z"/>
	<path d="M16.4,30.7c0-0.8,0.1-1.6,0.1-2.3c0-0.2-0.1-0.4-0.2-0.5c-0.9-0.7-1.2-1.7-1-2.8c0.1-0.8,0.5-1.5,1.1-2.1
		c0.7-0.6,1.6-0.6,2.3,0c1,0.9,1.5,2.6,0.9,3.8c-0.1,0.3-0.3,0.6-0.6,0.8c-0.4,0.3-0.4,0.6-0.4,1c0.1,1.4,0.1,2.9,0.2,4.3
		c0,0.9-0.5,1.5-1.3,1.6c-0.8,0-1.4-0.7-1.3-1.5C16.4,32.2,16.4,31.5,16.4,30.7C16.4,30.7,16.4,30.7,16.4,30.7z M17.1,30.6
		C17.1,30.6,17.1,30.6,17.1,30.6c0,0.8-0.1,1.6-0.1,2.3c0,0.5,0.2,0.9,0.7,0.9c0.4,0,0.7-0.3,0.6-0.9c-0.1-1.5-0.1-3-0.2-4.6
		c0-0.5,0.2-0.8,0.5-1.1c0.3-0.2,0.5-0.6,0.6-0.9c0.3-0.9,0-1.7-0.5-2.5c-0.5-0.7-1.2-0.8-1.8-0.2c-0.2,0.2-0.4,0.4-0.5,0.7
		c-0.5,0.9-0.6,2.5,0.4,3.1c0.3,0.2,0.4,0.5,0.4,0.9C17.2,29.1,17.2,29.8,17.1,30.6z"/>
	<path d="M24.8,30.6c0-0.7-0.1-1.5-0.1-2.2c0-0.5,0.1-0.9,0.5-1.2c0.5-0.3,0.7-0.8,0.7-1.4c0-0.8,0-1.6,0-2.4c0-0.2,0-0.5,0.3-0.5
		c0.4,0,0.4,0.3,0.4,0.5c0,0.9,0,1.7,0,2.6c0,0.7-0.4,1.3-0.9,1.6c-0.3,0.2-0.4,0.4-0.3,0.8c0.1,1.5,0.2,3,0.2,4.4
		c0,0.9-0.5,1.6-1.3,1.6c-0.8,0-1.4-0.6-1.3-1.6c0.1-1.5,0.1-3,0.2-4.4c0-0.3-0.1-0.6-0.3-0.8c-0.6-0.4-0.9-1.1-1-1.9
		c0-0.8,0-1.7,0-2.5c0-0.2,0.1-0.4,0.4-0.4c0.3,0,0.3,0.2,0.3,0.5c0,0.8,0,1.5,0,2.3c0,0.7,0.2,1.2,0.8,1.6c0.4,0.3,0.5,0.6,0.5,1.1
		c-0.1,1.5-0.1,3-0.2,4.4c0,0.1,0,0.2,0,0.3c0,0.4,0.3,0.7,0.6,0.7c0.4,0,0.7-0.3,0.6-0.7C24.9,32.3,24.9,31.5,24.8,30.6z"/>
	<path d="M23.3,24.5c0-0.4,0-0.8,0-1.2c0-0.1,0.2-0.2,0.3-0.4c0.1,0.1,0.3,0.2,0.3,0.4c0,0.7,0,1.5,0,2.2c0,0.1-0.2,0.3-0.3,0.4
		c-0.1-0.1-0.3-0.3-0.3-0.4C23.2,25.2,23.2,24.9,23.3,24.5C23.2,24.5,23.3,24.5,23.3,24.5z"/>
	<path d="M24.6,24.4c0-0.4,0-0.7,0-1.1c0-0.1,0.2-0.3,0.3-0.4c0.1,0.1,0.3,0.3,0.3,0.4c0,0.7,0,1.5,0,2.2c0,0.1-0.2,0.3-0.3,0.4
		c-0.1-0.1-0.3-0.3-0.3-0.4C24.6,25.2,24.6,24.8,24.6,24.4C24.6,24.4,24.6,24.4,24.6,24.4z"/>
</g>
</svg>
