<?xml version="1.0" encoding="utf-8"?>
<!-- Generator: Adobe Illustrator 24.0.1, SVG Export Plug-In . SVG Version: 6.00 Build 0)  -->
<svg version="1.1" id="Layer_1" xmlns="http://www.w3.org/2000/svg" xmlns:xlink="http://www.w3.org/1999/xlink" x="0px" y="0px"
	 viewBox="0 0 42 42" style="enable-background:new 0 0 42 42;" xml:space="preserve">
<style type="text/css">
	.st0{fill:#EEEFF0;}
	.st1{fill:#FFFFFF;}
</style>
<circle class="st0" cx="21" cy="21" r="21"/>
<g>
	<path d="M10.6,35.2c0-0.4,0-0.7,0-1.1c0.6,0,1.2,0,1.8,0c0.4,0,0.6-0.1,0.7-0.6c0.3-2.3,0.4-4.7-0.3-6.9c-0.8-2.3-0.4-4.6-0.2-6.9
		c0.1-1.2,0.2-2.3,0.3-3.5c0-0.5-0.2-0.8-0.7-0.9c-0.7-0.1-1.5-0.3-2.2-0.4c-1.9-0.2-3.1-1.1-3.2-2.8c-0.1-0.6,0.2-1.3,0.3-2
		C7,10,7.3,9.9,7.5,9.8C8,9.7,8.6,9.6,9.2,9.5c1-0.1,1.9-0.2,2.4-1.4c0.4-1,1.5-1.5,2.6-1.5c1.1,0,2.3,0,3.3,0.3c2,0.5,3.2,2,4,3.7
		c0.5,1.1,1,2.2,0.8,3.4c-0.1,0.6-0.4,1.2-0.8,1.6c-0.4,0.4-0.4,0.7-0.3,1.1c0.4,1.5,1.3,2.8,2.2,4c1.4,1.9,2.8,3.7,3.6,6
		c0.8,2.1,1,4.2,1,6.4c0,1.2,0,1.2,1.2,1.2c1.2,0,2.4-0.2,3.4-0.8c0.8-0.5,1.2-1.2,1.4-2c0.6-3-0.9-5.8-4.2-6.3
		c-0.9-0.1-0.9-0.1-0.8-1.1c2.1-0.2,5,1.3,5.8,3.6c0.6,1.6,0.7,3.1,0.1,4.7c-0.4,1.1-1.3,1.9-2.3,2.4c-1.7,0.7-3.5,0.7-5.2,0.4
		c-0.1,0-0.4-0.3-0.4-0.4c0-0.5,0-1,0-1.5c0.3-4.1-1.2-7.6-3.6-10.7c-0.8-1-1.5-2.1-2.2-3.1c-0.1-0.2-0.5-0.4-0.7-0.4
		c-2.2,0.2-4.3,0.4-6.5,0.6c-0.2,0-0.4,0.3-0.4,0.6c-0.4,2.1-0.5,4.2,0.2,6.4c0.7,2.1,0.7,4.3,0.4,6.5c0,0,0,0.1,0,0.1
		c-0.3,2-0.3,2-2.4,2C11.4,35.2,11,35.2,10.6,35.2z M20.4,17.8c0-0.3-0.1-0.5-0.1-0.8c-0.1-0.6-0.2-0.8-0.9-0.7
		c-0.9,0.2-1.7-0.1-2.3-0.9c-1.2-1.4-1.4-3.1-1.5-4.9c0-0.3,0-0.6,0.5-0.6c0.5,0,0.6,0.2,0.6,0.6c0.1,0.9,0.2,1.9,0.5,2.8
		c0.5,1.8,1.9,2.4,3.6,1.6c0.6-0.3,0.8-0.8,0.7-1.4c-0.3-2-1.1-3.7-2.7-5c-1.5-1.2-3.3-1-5.1-0.8C12.7,8,12.2,8.7,12,9.5
		c-0.1,0.5-0.4,0.7-0.8,0.7c-1.1,0.2-2.2,0.4-3.3,0.6c-0.4,1.5,0,2.7,1.7,2.9c0.7,0.1,1.5,0.2,2.2,0.4c1.7,0.4,2.2,0.9,2.1,2.5
		c0,0.6-0.1,1.3-0.1,2C16,18.3,18.2,18.1,20.4,17.8z"/>
	<path d="M24.8,34.1c0,0.4,0,0.7,0,1c-0.2,0-0.4,0.1-0.6,0.1c-2.5,0-5.1,0-7.6,0c-0.4,0-0.6-0.1-0.6-0.6c0-0.5,0.2-0.6,0.7-0.5
		c0.6,0,1.2,0,1.9,0c-1-2.2-1.3-4.4-0.3-6.6c0.6-1.3,2.2-2.7,3.8-3.4c0.6,0.7,0.5,0.8-0.1,1.2c-3,1.8-4,4.5-2.6,7.8
		c0.3,0.8,0.7,1,1.5,1C22.1,34,23.4,34.1,24.8,34.1z"/>
	<path d="M12.8,9.7c0-0.2,0-0.4,0.1-0.6c0.1-0.4,0.7-0.5,0.8-0.2c0.1,0.5,0.1,1,0,1.5c0,0.1-0.3,0.2-0.4,0.2
		c-0.2-0.1-0.3-0.2-0.4-0.4C12.8,10,12.8,9.8,12.8,9.7C12.8,9.7,12.8,9.7,12.8,9.7z"/>
</g>
</svg>
