<?xml version="1.0" encoding="utf-8"?>
<!-- Generator: Adobe Illustrator 24.0.1, SVG Export Plug-In . SVG Version: 6.00 Build 0)  -->
<svg version="1.1" id="Layer_1" xmlns="http://www.w3.org/2000/svg" xmlns:xlink="http://www.w3.org/1999/xlink" x="0px" y="0px"
	 viewBox="0 0 42 42" style="enable-background:new 0 0 42 42;" xml:space="preserve">
<style type="text/css">
	.st0{fill:#EEEFF0;}
	.st1{fill:#FFFFFF;}
</style>
<circle class="st0" cx="21" cy="21" r="21"/>
<g>
	<path d="M22.5,31.3c-0.9,0.5-1.2,1-0.9,1.8c0.3,0.7,0.8,0.9,1.7,0.8c-0.4,0.3-0.9,0.6-1.3,0.8c-0.9,0.3-1.8,0.6-2.8,0.8
		c-1.2,0.2-2.2,0.7-3.1,1.5c-0.3,0.3-0.7,0.6-1.1,0.8c-0.1,0.1-0.3,0.1-0.5,0.1c-1.3-0.4-2.3-1.3-2.9-2.5c-0.5-1-0.7-2-0.7-3
		c0-0.2,0.1-0.3,0.2-0.4c0.7-0.4,1.4-0.8,2.1-1.1c0.2-0.1,0.3-0.3,0.3-0.5c-0.1-1.5,0.3-2.9,1.2-4.2c0.4-0.6,0.9-1,1.6-1.3
		c1.2-0.5,2.4-0.9,3.5-1.4c0.4-0.1,0.5-0.1,0.6,0.3c0.2,0.8,0,1.6-0.6,2.2c-0.7,0.8-1.6,1.3-2.7,1.5c-0.3,0.1-0.5,0.2-0.5,0.6
		c0,0.5,0.1,1,0.6,1.3c0,0,0.1,0,0.1,0.1c0.2,0.5,0.4,1.1,0.6,1.6c-0.1-0.5-0.3-1-0.4-1.6c1.5,0,2.9,0,4.3,0c0,0.4-0.1,0.8-0.1,1.2
		C22,30.7,22.3,31,22.5,31.3z"/>
	<path d="M27,28.8c-0.1-0.2-0.1-0.3-0.2-0.5c-0.3-0.6-0.8-0.9-1.5-0.6c-0.9,0.4-1.8,0.8-2.7,1.1c-0.1,0.1-0.3,0.1-0.5,0.1
		c-1.4,0-2.7,0-4.1,0c-0.8,0-1.1-0.3-1.1-1.1c0-0.1,0-0.2,0-0.3c0.9-0.2,1.8-0.6,2.8-0.5c2.2,0.1,4.4,0,6.5,0c0.1,0,0.3,0,0.4,0
		c0-4.7,0-9.5,0-14.2c-3,0-6,0-9.1,0c0,0.2,0,0.3,0,0.5c0,3.3,0,6.7,0,10c0,0.6,0,0.6-0.7,0.8c0-0.1,0-0.2,0-0.3c0-3.9,0-7.9,0-11.8
		c0-0.6,0.3-0.9,0.9-0.9c2.9,0,5.7,0,8.6,0c0.6,0,1,0.3,1,0.9c0,5.3,0,10.6,0,16C27.4,28.3,27.4,28.6,27,28.8z"/>
	<path d="M27.3,6.8c-0.2,0.2-0.4,0.4-0.6,0.6c-1.1-1.4-2.6-2.3-4.4-2.3c-1.9,0-3.3,0.8-4.5,2.3c-0.2-0.2-0.4-0.4-0.6-0.6
		C19.5,3.5,24.6,3.2,27.3,6.8z"/>
	<path d="M26.8,29.1c0,0.5-0.2,0.8-0.6,0.9c-1,0.4-2,0.7-3,1.1c-0.4,0.1-0.9-0.2-1.1-0.6c-0.2-0.5,0-1.1,0.5-1.3
		c0.3-0.2,0.7-0.3,1-0.4c0.6-0.2,1.1-0.5,1.7-0.7c0.7-0.3,1.1-0.1,1.3,0.6C26.7,28.7,26.8,28.9,26.8,29.1z"/>
	<path d="M26.3,31.7c0,0.5-0.2,0.9-0.6,1c-0.9,0.3-1.8,0.7-2.7,1c-0.5,0.2-1.1-0.1-1.3-0.6c-0.2-0.6,0-1.2,0.5-1.4
		c0.9-0.4,1.8-0.8,2.7-1.1c0.3-0.1,0.7-0.1,0.9,0.2C26.1,31.1,26.2,31.5,26.3,31.7z"/>
	<path d="M19.1,8.8c-0.2-0.2-0.4-0.4-0.6-0.6c0.9-1.3,2.1-2,3.7-2c1.6,0,2.8,0.7,3.7,2.1c-0.2,0.2-0.4,0.3-0.6,0.5
		C24.6,7.6,23.6,7,22.2,7C20.9,7,19.9,7.6,19.1,8.8z"/>
	<path d="M20.4,10.1c-0.2-0.2-0.4-0.4-0.6-0.6c0.5-1,1.3-1.6,2.4-1.6c1.2,0,1.9,0.6,2.5,1.6c-0.2,0.2-0.4,0.4-0.6,0.6
		C23.3,8.2,21.1,8.3,20.4,10.1z"/>
	<path d="M23.6,20.9c-0.3,0-0.5,0-0.7,0c-0.1-0.3-0.1-0.5-0.2-0.8c-0.3,0-0.6,0-1,0c-0.1,0.3-0.2,0.5-0.2,0.8c-0.2,0-0.4,0-0.6,0
		c0.1-0.2,0.1-0.4,0.2-0.5c0.2-0.7,0.5-1.4,0.7-2c0.1-0.3,0.3-0.3,0.5-0.3c0.2,0,0.3,0,0.4,0.3C23,19.1,23.3,20,23.6,20.9z
		 M22.6,19.6c-0.1-0.4-0.2-0.7-0.4-1.2c-0.1,0.5-0.3,0.8-0.4,1.2C22.1,19.6,22.3,19.6,22.6,19.6z"/>
	<path d="M18.9,18.1c0.5,0,0.9,0,1.3,0c0.4,0,0.6,0.2,0.7,0.6c0.1,0.4-0.1,0.8-0.5,1c-0.3,0.1-0.6,0.2-0.9,0.3c0,0.1,0,0.3,0,0.5
		c0,0.2,0,0.3,0,0.5c-0.2,0-0.4,0-0.6,0C18.9,19.9,18.9,19,18.9,18.1z M19.4,18.4c0,0.4,0,0.7,0,1.1c0.3-0.2,0.6-0.2,0.8-0.4
		c0.1-0.1,0.1-0.4,0-0.5C20,18.5,19.7,18.5,19.4,18.4z"/>
	<path d="M27.7,26.9c0-0.9,0-1.7,0-2.6c0.4,0,0.8,0,1.1,0.4c0.4,0.5,0.4,1,0.1,1.4C28.7,26.4,28.2,26.8,27.7,26.9z"/>
	<path d="M24.7,19.4c0.2-0.4,0.3-0.7,0.4-1c0.2-0.4,0.2-0.4,0.7-0.3c-0.3,0.4-0.6,0.8-0.7,1.3c-0.2,0.5-0.2,1-0.3,1.5
		c-0.1,0-0.3,0-0.6,0c0.2-1.1-0.3-1.9-0.8-2.8c0.5-0.2,0.6-0.1,0.8,0.3c0.1,0.2,0.1,0.3,0.2,0.5C24.6,19,24.7,19.2,24.7,19.4z"/>
	<path d="M27.7,24.1c0-0.8,0-1.5,0-2.3c0.5,0.2,0.8,0.5,0.8,1.1C28.6,23.5,28.3,23.9,27.7,24.1z"/>
</g>
</svg>
