<?xml version="1.0" encoding="utf-8"?>
<!-- Generator: Adobe Illustrator 24.0.1, SVG Export Plug-In . SVG Version: 6.00 Build 0)  -->
<svg version="1.1" id="Layer_1" xmlns="http://www.w3.org/2000/svg" xmlns:xlink="http://www.w3.org/1999/xlink" x="0px" y="0px"
	 viewBox="0 0 42 42" style="enable-background:new 0 0 42 42;" xml:space="preserve">
<style type="text/css">
	.st0{fill:#EEEFF0;}
	.st1{fill:#FFFFFF;}
</style>
<circle class="st0" cx="21" cy="21" r="21"/>
<g>
	<path d="M20.9,36.2c-8.4,0-15.1-6.8-15.1-15.2c0-8.4,6.8-15.1,15.3-15.1c8.3,0,15.2,6.9,15,15.4C36,30,28.9,36.2,20.9,36.2z
		 M26.6,25c1.4,1.5,2.8,3,4.3,4.6c4.3-4.8,4.4-12.7-0.5-17.7c-4.9-5-12.9-5.3-17.8-0.8c0.1,0.1,0.2,0.3,0.3,0.4
		c2.9,2.9,5.8,5.8,8.7,8.7c0.7,0.7,1.5,1.4,2.3,2.1C24.8,23.1,25.7,24.1,26.6,25z M29.5,30.9c-1.9-1.9-3.8-3.8-5.7-5.7
		c-0.2-0.2-0.4-0.3-0.6-0.3c-1.1,0-2.3,0-3.4,0c-3.1,0-6.2,0-9.3,0c0-1.1,0-2,0-3.1c3.3,0,6.5,0,9.9,0c-3.3-3.2-6.4-6.2-9.5-9.2
		c-3.8,4-4.3,12.2,0.5,17.3C16.2,35.1,24.3,35.6,29.5,30.9z"/>
	<path d="M23.8,22.2c0.4-0.1,0.8-0.2,1.2-0.2c1.3,0,2.6,0,4,0c0,0.9,0,1.7,0,2.6c0,0.2-0.4,0.4-0.6,0.4c-0.6,0-1.2,0-1.8,0
		C25.7,24.1,24.8,23.1,23.8,22.2z"/>
	<path d="M30.5,21.4c-0.7,0.2-0.9-0.1-0.9-0.7c0-1.5-0.3-1.8-1.8-2c-0.6-0.1-1.1,0-1.7,0c-2.3,0-3-0.6-3.1-2.9
		c-2.1-0.9-3-2.1-2.6-3.7c0.3-1.5,1.4-2.3,2.9-2.3c0.2,0.5,0.1,0.8-0.5,1c-1,0.3-1.5,1.1-1.4,2.1c0.1,0.9,0.8,1.7,1.8,1.8
		c0.9,0.1,1.4,0.2,1,1.3c-0.3,1,0.3,1.7,1.4,1.7c0.6,0,1.3,0,1.9,0C30,17.6,30.8,18.6,30.5,21.4z"/>
	<path d="M24.1,11.5c0-0.3,0-0.6,0-1c0.6,0.2,1.2,0.2,1.7,0.5c1.7,0.9,2.1,2.4,1.6,4.3c0.4,0,0.7,0.1,1.1,0.1c2.1,0.2,3.7,2,3.8,4.2
		c0,0.4,0,0.8,0,1.2c0,0.7-0.3,0.9-1,0.7c0-0.5,0-1.1,0-1.6c0-2.1-1.4-3.4-3.5-3.5c-0.2,0-0.5,0-0.7,0c-1.2,0-1.3-0.2-0.8-1.2
		C27,13.3,26.3,12.1,24.1,11.5z"/>
	<path d="M29.6,21.9c0.4,0,0.6,0,1,0.1c0,0.9,0,1.8,0,2.7c0,0.1-0.5,0.2-0.9,0.4C29.6,23.9,29.6,23,29.6,21.9z"/>
	<path d="M31.1,24.8c0-1,0-1.9,0-2.8c1.1-0.4,1.1-0.2,0.9,2.8C31.8,24.8,31.5,24.8,31.1,24.8z"/>
</g>
</svg>
