<?xml version="1.0" encoding="utf-8"?>
<!-- Generator: Adobe Illustrator 24.0.1, SVG Export Plug-In . SVG Version: 6.00 Build 0)  -->
<svg version="1.1" id="Layer_1" xmlns="http://www.w3.org/2000/svg" xmlns:xlink="http://www.w3.org/1999/xlink" x="0px" y="0px"
	 viewBox="0 0 42 42" style="enable-background:new 0 0 42 42;" xml:space="preserve">
<style type="text/css">
	.st0{fill:#EEEFF0;}
	.st1{fill:#FFFFFF;}
</style>
<circle class="st0" cx="21" cy="21" r="21"/>
<g>
	<path d="M21.6,10.3c5.3,0.1,10.3,2.1,14.4,6.3c0.7,0.7,0.7,1.5,0.1,2.2c-0.6,0.6-1.5,0.6-2.1-0.1c-2.9-2.9-6.3-4.7-10.4-5.2
		c-5.8-0.7-10.9,0.9-15.2,5c-0.1,0.1-0.2,0.2-0.3,0.3c-0.6,0.6-1.5,0.6-2.1,0c-0.6-0.6-0.6-1.5,0-2.1c1.5-1.5,3.1-2.8,5-3.8
		C14.1,11.1,17.5,10.3,21.6,10.3z"/>
	<path d="M20.9,16.5c3.5,0.1,6.5,1,9.1,3.1c0.6,0.4,1.1,0.9,1.6,1.4c0.6,0.6,0.6,1.5,0,2.1c-0.6,0.6-1.5,0.6-2.1,0
		c-1.2-1.2-2.5-2.1-4-2.7c-2.5-1-5.1-1.2-7.7-0.4c-2,0.6-3.8,1.6-5.2,3.1c-0.6,0.7-1.5,0.7-2.1,0.1c-0.6-0.6-0.6-1.5,0-2.2
		c2.6-2.7,5.8-4.1,9.6-4.4C20.3,16.5,20.7,16.5,20.9,16.5z"/>
	<path d="M21,22.7c2.4,0.1,4.5,0.9,6.2,2.7c0.6,0.6,0.6,1.5,0,2.1c-0.6,0.6-1.5,0.6-2.1,0c-1.9-1.9-4.4-2.3-6.6-1.2
		c-0.6,0.3-1.1,0.7-1.5,1.1c-0.7,0.6-1.5,0.7-2.2,0.1c-0.6-0.6-0.6-1.5,0.1-2.2C16.5,23.6,18.6,22.8,21,22.7z"/>
	<path d="M21,33.7c-1.3,0-2.4-1-2.5-2.4c0-1.3,1-2.4,2.4-2.5c1.3,0,2.4,1,2.5,2.4C23.5,32.6,22.4,33.7,21,33.7z"/>
</g>
</svg>
