<?xml version="1.0" encoding="utf-8"?>
<!-- Generator: Adobe Illustrator 24.0.1, SVG Export Plug-In . SVG Version: 6.00 Build 0)  -->
<svg version="1.1" id="Layer_1" xmlns="http://www.w3.org/2000/svg" xmlns:xlink="http://www.w3.org/1999/xlink" x="0px" y="0px"
	 viewBox="0 0 22 22" style="enable-background:new 0 0 22 22;" xml:space="preserve">
<style type="text/css">
	.st0{fill:#FFFFFF;}
</style>
<circle class="st0" cx="11" cy="11" r="11"/>
<g>
	<circle cx="11" cy="15.9" r="1"/>
	<path d="M3.4,8.3C3.8,8.6,4.1,9,4.5,9.3c1.8-1.7,4-2.7,6.5-2.7c2.5,0,4.7,0.9,6.5,2.7c0.4-0.4,0.7-0.7,1.1-1.1
		C14.2,3.9,7.2,4.3,3.4,8.3z"/>
	<path d="M5.8,10.6c0.4,0.4,0.7,0.7,1.1,1.1c2.4-2.4,6.1-2.2,8.3,0c0.4-0.4,0.7-0.7,1.1-1.1C13.2,7.6,8.4,7.9,5.8,10.6z"/>
	<path d="M8.1,12.9c0.4,0.4,0.7,0.7,1.1,1.1c0.5-0.5,1.1-0.7,1.8-0.7c0.7,0,1.3,0.3,1.8,0.8c0.4-0.4,0.7-0.7,1.1-1.1
		C12.3,11.3,9.6,11.4,8.1,12.9z"/>
</g>
</svg>
