<?xml version="1.0" encoding="utf-8"?>
<!-- Generator: Adobe Illustrator 24.0.1, SVG Export Plug-In . SVG Version: 6.00 Build 0)  -->
<svg version="1.1" id="Layer_1" xmlns="http://www.w3.org/2000/svg" xmlns:xlink="http://www.w3.org/1999/xlink" x="0px" y="0px"
	 viewBox="0 0 42 42" style="enable-background:new 0 0 42 42;" xml:space="preserve">
<style type="text/css">
	.st0{fill:#EEEFF0;}
	.st1{fill:#FFFFFF;}
</style>
<circle class="st0" cx="21" cy="21" r="21"/>
<g>
	<path d="M20.7,26.5c-1.6,0-3.2,0-4.7,0c-0.4,0-0.8,0-1.2,0c-0.4,0-0.5-0.1-0.5-0.6c0-0.4,0.1-0.6,0.5-0.6c0.7,0,1.5,0,2.2,0
		c1.1,0,2.2,0,3.3,0c0.1,0,0.2,0,0.4,0c0-3.7,0-7.4,0-11.1c-0.7-0.1-1.3-0.1-2-0.3c-0.5-0.1-1.1-0.3-1.6-0.5c-0.1,0-0.2-0.1-0.3,0
		c-1.9,0.8-3.8,0.7-5.8,0.3c-0.1,0-0.2,0-0.2,0c-0.1-0.1-0.3-0.2-0.4-0.3c0.1-0.1,0.2-0.3,0.3-0.4c1.7-0.7,3.4-1.5,5.1-2.2
		c1.6-0.7,3.2-1.4,4.9-2.1c0.3-0.1,0.5-0.1,0.7,0c3.3,1.4,6.6,2.8,9.9,4.2c0.1,0,0.2,0.1,0.3,0.1c0.1,0.1,0.2,0.2,0.1,0.3
		c0,0.1-0.1,0.2-0.2,0.2c-2,0.4-4.1,0.6-6.1-0.2c-0.1,0-0.2-0.1-0.3,0c-1.1,0.5-2.2,0.6-3.4,0.7c-0.1,0-0.1,0-0.2,0
		c0,3.7,0,7.4,0,11.1c0.2,0,0.3,0,0.5,0c1.8,0,3.5,0,5.3,0c0.2,0,0.5,0.1,0.6,0.2c0.1,0.2,0.1,0.6,0,0.8c0,0.1-0.3,0.1-0.5,0.1
		c-1.8,0-3.6,0-5.4,0c-0.1,0-0.3,0-0.4,0c0,2.1,0,4.1,0,6.2c0.4,0,0.7,0,1.1,0c0.3,0,0.7,0,1,0c0.2,0,0.4,0.1,0.4,0.3
		c0,0.1-0.2,0.3-0.4,0.3c-1.7,0-3.3,0-5,0c-0.2,0-0.4-0.1-0.4-0.3c0-0.1,0.2-0.3,0.4-0.3c0.7,0,1.4,0,2.2,0
		C20.7,30.7,20.7,28.6,20.7,26.5z"/>
	<path d="M14.6,29.5c-1.7,0-3.3,0-4.9,0c0,0.9-0.1,1.7-0.1,2.6c0,0.3,0,0.5,0,0.8c0,0.2-0.1,0.4-0.3,0.4C9.2,33.3,9,33,9,32.9
		c0-1,0-1.9,0.1-2.9c0.2-1.8-0.2-3.4-0.6-5.1c-0.3-1.2-0.5-2.4-0.8-3.6c0-0.1,0.1-0.4,0.2-0.4c0.3-0.1,0.3,0.2,0.4,0.4
		c0.5,2.1,0.9,4.2,1.4,6.2c0,0.1,0.1,0.2,0.1,0.3c0.1,0,0.3,0,0.4,0c1.5,0,3,0,4.5,0c0.5,0,0.5,0.1,0.6,0.5c0.1,1.5,0.1,3,0.1,4.6
		c0,0.2-0.1,0.4-0.3,0.4c-0.2,0-0.3-0.2-0.3-0.4c0-1-0.1-2-0.1-3C14.6,29.8,14.6,29.7,14.6,29.5z M9.7,28.9c1.6,0,3.3,0,4.9,0
		c0-0.2,0-0.3,0-0.5c-1.6,0-3.2,0-4.9,0C9.7,28.6,9.7,28.7,9.7,28.9z"/>
	<path d="M32.3,29.5c-1.7,0-3.3,0-4.9,0c0,0.2,0,0.3,0,0.5c0,1-0.1,1.9-0.1,2.9c0,0.2,0,0.4-0.3,0.4c-0.3,0-0.3-0.2-0.3-0.4
		c0.1-1.5,0.1-3,0.1-4.6c0-0.4,0.2-0.5,0.5-0.5c1.6,0,3.3,0,4.9,0c0.2-0.8,0.4-1.6,0.5-2.3c0.3-1.4,0.6-2.8,1-4.2
		c0-0.2,0.1-0.4,0.4-0.4c0.3,0.1,0.2,0.3,0.2,0.5c-0.5,2.1-1,4.2-1.4,6.2c-0.1,0.2-0.1,0.5-0.1,0.7c0,1.5,0.1,3,0.2,4.5
		c0,0.2,0,0.4-0.3,0.4c-0.3,0-0.3-0.2-0.3-0.4c0-1-0.1-2-0.1-3C32.3,29.8,32.3,29.7,32.3,29.5z M32.2,28.9c0-0.2,0-0.3,0-0.5
		c-1.6,0-3.2,0-4.8,0c0,0.2,0,0.3,0,0.5C29,28.9,30.6,28.9,32.2,28.9z"/>
</g>
</svg>
